<?xml version="1.0" encoding="utf-8"?>
<!-- Generator: Adobe Illustrator 23.0.1, SVG Export Plug-In . SVG Version: 6.00 Build 0)  -->
<svg version="1.1" id="Layer_1" xmlns="http://www.w3.org/2000/svg" xmlns:xlink="http://www.w3.org/1999/xlink" x="0px" y="0px"
	 viewBox="0 0 388.1 167" style="enable-background:new 0 0 388.1 167;" xml:space="preserve">
<style type="text/css">
	.st0{fill:#A39160;}
	.st1{fill:#E31F0E;}
	.st2{fill:#20201E;}
	.st3{fill:#FFFFFF;}
	.st4{fill:#C42519;}
	.st5{fill:#C42619;}
</style>
<title>Cunard Logo Stacked</title>
<g>
	<path class="st0" d="M96.7,108.1c0.4,0.4,0.9,0.6,1.5,0.5c1-0.1,1.4-0.9,0.8-1.3s-0.7,0.3-1.3,0.6
		C97.4,108.1,97.1,108.2,96.7,108.1z"/>
	<path class="st0" d="M111.6,108.1c-0.4,0.4-0.9,0.6-1.5,0.5c-1-0.1-1.4-0.9-0.8-1.3s0.7,0.3,1.3,0.6
		C110.9,108.1,111.3,108.2,111.6,108.1z"/>
	<polygon class="st0" points="82,36.5 82,36.5 82,36.5 	"/>
	<polygon class="st0" points="82,36.5 82,36.5 82,36.5 	"/>
	<path class="st0" d="M80.9,28c0.6-0.3,1.4-0.1,1.7,0.6s0.1,1.4-0.6,1.7"/>
	<path class="st0" d="M82.7,29.1c0-0.7-0.6-1.2-1.3-1.2c-0.2,0-0.4,0.1-0.5,0.1l1.1,2.3C82.5,30.1,82.7,29.6,82.7,29.1z"/>
	<path class="st0" d="M127.6,28c-0.6-0.4-1.4-0.3-1.8,0.3c-0.4,0.6-0.3,1.4,0.3,1.8c0.1,0.1,0.2,0.1,0.4,0.2"/>
	<path class="st0" d="M125.8,29.1c0-0.7,0.6-1.2,1.3-1.2c0.2,0,0.4,0.1,0.5,0.1l-1.1,2.2C126,30,125.8,29.6,125.8,29.1z"/>
	<path class="st0" d="M75.2,24c0,0.6-0.5,1.1-1.1,1.1c-0.6,0-1.1-0.5-1.1-1.1c0-0.6,0.5-1.1,1.1-1.1c0,0,0,0,0,0
		C74.6,22.9,75.1,23.4,75.2,24z"/>
	<path class="st0" d="M74.8,19.4c0,0.6-0.5,1.1-1.1,1.1s-1.1-0.5-1.1-1.1c0-0.6,0.5-1.1,1.1-1.1l0,0C74.3,18.2,74.8,18.7,74.8,19.4
		C74.8,19.3,74.8,19.3,74.8,19.4z"/>
	<path class="st0" d="M76.1,14.9c0,0.6-0.5,1.1-1.1,1.1s-1.1-0.5-1.1-1.1c0-0.6,0.5-1.1,1.1-1.1c0,0,0,0,0,0
		C75.6,13.8,76.1,14.3,76.1,14.9z"/>
	<path class="st0" d="M79,11.3c0,0.6-0.5,1.1-1.1,1.1c-0.6,0-1.1-0.5-1.1-1.1c0-0.6,0.5-1.1,1.1-1.1c0,0,0,0,0,0
		C78.5,10.2,79,10.7,79,11.3z"/>
	<path class="st0" d="M83.2,8.9c0,0.6-0.5,1.1-1.1,1.1c-0.6,0-1.1-0.5-1.1-1.1c0-0.6,0.5-1.1,1.1-1.1c0,0,0,0,0,0
		C82.6,7.8,83.2,8.3,83.2,8.9z"/>
	<circle class="st0" cx="86.6" cy="7.7" r="1.1"/>
	<circle class="st0" cx="91.2" cy="7.6" r="1.1"/>
	<ellipse class="st0" cx="95.8" cy="8.3" rx="1.1" ry="1.1"/>
	<polygon class="st0" points="100.7,11.1 99.3,11.1 101.7,18.1 102.6,18.1 	"/>
	<path class="st0" d="M86.6,10C81,10.7,75.4,15,76,20.9c0.5,4.4,1.8,6.6,3.7,9.9l1.1,1.9l1.2-0.7L81,30.1c-1.9-3.2-3.1-5.2-3.5-9.3
		c-0.5-4.8,4.4-8.7,9.3-9.3c4.3-0.4,8.7,0.3,12.7,2l-0.6-1.8C95,10.1,90.8,9.5,86.6,10z"/>
	<path class="st0" d="M86.9,12.3c-4.5,0.6-9,4-8.5,8.3c0.1,1,0.3,1.9,0.5,2.8l0.9-0.3c-0.2-0.8-0.4-1.7-0.5-2.6
		c-0.4-3.8,3.7-6.8,7.7-7.3c4.3-0.3,8.6,0.4,12.6,2.2l0.8,0.4l-0.4-1.3C95.9,12.6,91.3,11.8,86.9,12.3z"/>
	<path class="st0" d="M133.3,24c0,0.6,0.5,1.1,1.1,1.1c0.6,0,1.1-0.5,1.1-1.1c0-0.6-0.5-1.1-1.1-1.1C133.9,22.9,133.4,23.4,133.3,24
		C133.3,24,133.3,24,133.3,24z"/>
	<circle class="st0" cx="134.8" cy="19.4" r="1.1"/>
	<path class="st0" d="M132.4,14.9c0,0.6,0.5,1.1,1.1,1.1c0.6,0,1.1-0.5,1.1-1.1c0-0.6-0.5-1.1-1.1-1.1c0,0,0,0,0,0
		C132.9,13.8,132.4,14.3,132.4,14.9z"/>
	<circle class="st0" cx="130.6" cy="11.3" r="1.1"/>
	<circle class="st0" cx="126.5" cy="8.9" r="1.1"/>
	<circle class="st0" cx="121.9" cy="7.7" r="1.1"/>
	<circle class="st0" cx="117.3" cy="7.6" r="1.1"/>
	<circle class="st0" cx="112.7" cy="8.3" r="1.1"/>
	<polygon class="st0" points="107.8,11.1 109.1,11.1 106.7,18.1 105.9,18.1 	"/>
	<path class="st0" d="M121.9,10c5.6,0.7,11.2,5,10.6,10.9c-0.5,4.4-1.8,6.6-3.7,9.9l-1.1,1.9l-1.2-0.7l1.1-1.9
		c1.9-3.2,3.1-5.2,3.5-9.3c0.5-4.8-4.4-8.7-9.3-9.3c-4.3-0.4-8.7,0.3-12.7,2l0.6-1.8C113.5,10.1,117.7,9.5,121.9,10z"/>
	<path class="st0" d="M121.6,12.3c4.5,0.6,9,4,8.5,8.3c-0.1,1-0.3,1.9-0.5,2.8l-0.9-0.3c0.2-0.8,0.4-1.7,0.4-2.6
		c0.4-3.8-3.6-6.8-7.7-7.3c-4.3-0.3-8.6,0.4-12.6,2.2l-0.8,0.4l0.4-1.3C112.6,12.6,117.1,11.8,121.6,12.3z"/>
	<polyline class="st0" points="103.2,18.1 105.2,18.1 105.7,16.2 102.7,16.2 103.2,18.1 105.2,18.1 	"/>
	<polygon class="st0" points="105.9,15.6 106.3,14.2 102.2,14.2 102.6,15.6 	"/>
	<path class="st0" d="M107.5,0.5l-1.1,2.3l2.6-1.3v8l-3.5-1.6l1.6,3.1l-0.6,2.5H102l-0.6-2.5l1.6-3.2l-3.5,1.6v-8l2.6,1.3L101,0.4
		L107.5,0.5z M108,3.5l-1,0.5V7l1,0.5V3.5z M104.2,7.2c0.9,0,1.7-0.8,1.7-1.7c0-0.9-0.8-1.7-1.7-1.7l0,0c-0.9,0-1.7,0.8-1.7,1.7
		C102.6,6.5,103.3,7.2,104.2,7.2z M100.4,7.5l1-0.5V3.9l-1-0.5V7.5z M104.2,4.4c-0.6,0-1.1,0.5-1.1,1.1c0,0.6,0.5,1.1,1.1,1.1
		c0.6,0,1.1-0.5,1.1-1.1C105.4,4.9,104.9,4.4,104.2,4.4L104.2,4.4z"/>
	<polygon class="st0" points="82,36.5 82,36.5 82,36.5 	"/>
	<path class="st0" d="M116.2,37.5l3,2.3l3.6-1.3l-3-2.3L116.2,37.5z M119.4,38.9l-1.4-1.1l1.7-0.6l1.4,1.1L119.4,38.9z"/>
	<path class="st0" d="M91,43.2l-3.2,0.4c-0.4,0.1-0.8,0.5-0.7,0.9c0,0,0,0,0,0c0.1,0.4,0.5,0.8,0.9,0.7l3.2-0.4
		c0.5-0.1,0.8-0.5,0.7-0.9C91.9,43.5,91.5,43.2,91,43.2z"/>
	<path class="st0" d="M113.8,36l-3.8-0.3c-0.3,0-0.5,0.2-0.5,0.4l-0.1,1.8c0,0.3,0.2,0.5,0.4,0.5c0,0,0,0,0,0l3.8,0.3
		c0.3,0,0.5-0.2,0.5-0.4l0.1-1.8C114.3,36.3,114.1,36,113.8,36z M113.3,37.9l-3-0.2c0-0.3,0.1-0.7,0.1-1l3,0.2
		C113.4,37.1,113.3,37.5,113.3,37.9L113.3,37.9z"/>
	<path class="st0" d="M120.7,43.6l-3.2-0.4c-0.4-0.1-0.9,0.2-1,0.6c-0.1,0.4,0.2,0.9,0.6,1c0.1,0,0.1,0,0.2,0l3.2,0.4
		c0.4,0.1,0.9-0.3,0.9-0.7c0,0,0,0,0,0C121.4,44.1,121.1,43.7,120.7,43.6C120.7,43.6,120.7,43.6,120.7,43.6z"/>
	<path class="st0" d="M125.5,32.3L125.5,32.3l0.7-1.4c-1.1-0.3-1.7-1.4-1.3-2.5c0.3-1.1,1.4-1.7,2.5-1.3c0.2,0.1,0.4,0.2,0.6,0.3
		l1.4-2.9l-3.5-1.5v2.9l-2-2.7l-0.8,2.2c0-0.2,0.1-0.4,0.1-0.6c0-1.5-1.2-2.7-2.7-2.7c-0.5,0-1,0.1-1.4,0.4l0,0l0.4-0.8l-2.9-4.2
		l-3.7,3.5l0.2,0.8l0,0c-0.4-0.3-0.8-0.6-1.3-0.7c-1.4-0.3-2.7,0.5-3.1,1.8v-0.5l0.2-1.4l-2.3,0.9l1.2-2.3h-0.8c0,0,0-0.6,0-0.8h-5
		c0,0.2,0,0.8,0,0.8h-0.8l1.2,2.3l-2.3-0.9l0.1,1.4l0.1,0.5c-0.5-1.4-2.1-2.2-3.5-1.7c-0.4,0.1-0.7,0.3-1,0.6l0,0l0.2-0.8l-3.7-3.5
		l-2.9,4.2l0.4,0.8l0,0c-1.3-0.8-3-0.3-3.8,1c-0.3,0.4-0.4,0.9-0.4,1.4c0,0.2,0,0.4,0.1,0.6l-0.8-2.2l-2,2.7V23l-3.5,1.4l1.4,2.9
		c0.9-0.7,2.1-0.5,2.8,0.4s0.5,2.1-0.4,2.8c-0.2,0.1-0.4,0.2-0.6,0.3l0.7,1.4l0,0c0,0-3,0.9-2.8,2.6c0,0.9,0.7,1.7,1.6,1.7
		c0,0,0.1,0,0.1,0l0,0l0.8,6.2c-1.3,1.5-1.2,3.8,0.3,5.2c0.9,0.8,2.1,1.1,3.2,0.8l0.4-0.1c0.9-0.2,1.1-0.2,2.1-0.4
		C94,47.4,99.1,47,104.2,47c6-0.1,11.9,0.5,17.8,1.6c2,0.4,3.9-0.8,4.3-2.8c0,0,0,0,0,0c0.2-1.1,0-2.2-0.8-3.1l0.9-6.2
		c0.9,0.1,1.7-0.6,1.8-1.6c0,0,0-0.1,0-0.1C128.5,33.1,125.5,32.3,125.5,32.3z M128,25l-0.6,1.3c-0.1,0-0.3,0-0.4,0h-0.2v-1.9
		L128,25z M81.7,26.3h-0.3c-0.1,0-0.3,0-0.4,0L80.5,25l1.3-0.5L81.7,26.3z M124.2,25.6l0.9,1.4c-0.6,0.5-1,1.3-1,2.2
		c0,0.1,0,0.2,0,0.2c-0.5,0-1.4,0.1-1.4,0.1L124.2,25.6z M120.5,23.6c0.8,0.1,1.4,0.9,1.3,1.7c0,0.1,0,0.2-0.1,0.2
		c-0.2-0.8-1.1-1.3-1.9-1.1c-0.4,0.1-0.8,0.4-1,0.8c-0.1-0.9,0.6-1.6,1.4-1.7C120.4,23.6,120.5,23.6,120.5,23.6L120.5,23.6z
		 M118.7,26.6c0-0.1,0-0.2,0.1-0.3c0.1-0.2,0.2-0.4,0.4-0.5c0.2-0.2,0.5-0.3,0.8-0.3c0.7,0,1.3,0.6,1.3,1.3c0,0,0,0,0,0
		c0,0.2,0,0.4-0.1,0.6c0.7-0.2,1.3-0.7,1.6-1.4l-1.6,4.6l2.8-0.2l0,0c-0.8,0.6-1.7,0.9-2.7,0.9c-1.7,0.1-3.3-1-3.8-2.7l0,0
		c0.6,0,1.1-0.4,1.1-1c0-0.2,0-0.5-0.1-0.7l0,0C118.6,26.9,118.7,26.8,118.7,26.6L118.7,26.6z M123.2,33.9c0,0.2-0.2,0.4-0.5,0.3
		l-1.8-0.3c-0.2,0-0.4-0.2-0.3-0.5c0,0,0,0,0,0c0-0.2,0.2-0.4,0.5-0.3c0,0,0,0,0,0l1.8,0.3C123,33.4,123.2,33.6,123.2,33.9
		C123.2,33.9,123.2,33.9,123.2,33.9L123.2,33.9z M119.3,33.2c0,0.2-0.2,0.4-0.5,0.4l-1.8-0.2c-0.2,0-0.4-0.2-0.4-0.4
		c0-0.2,0.2-0.4,0.4-0.4c0,0,0,0,0,0l1.8,0.2C119.1,32.8,119.3,33,119.3,33.2C119.3,33.2,119.3,33.2,119.3,33.2L119.3,33.2z
		 M116.3,19l2,2.9l-1.8,4.2L116,26l0.7-2.9l-0.7-1.5l-0.9,1.3l0.1,3h-0.5l-0.9-4.5L116.3,19z M113.6,26.7l3.7,0.4
		c0.2,0,0.4,0.2,0.4,0.4s-0.2,0.4-0.4,0.4l0,0l-3.8-0.4c-0.2,0-0.4-0.2-0.4-0.4c0,0,0,0,0,0C113.1,26.9,113.4,26.7,113.6,26.7
		C113.6,26.7,113.6,26.7,113.6,26.7L113.6,26.7z M113.6,30.8l1.2-1.5l0.7,0.1l0.9,1.7L113.6,30.8z M115.4,32.8
		c0,0.2-0.2,0.4-0.4,0.4c0,0,0,0,0,0l-1.8-0.1c-0.2,0-0.4-0.2-0.4-0.4c0-0.2,0.2-0.4,0.4-0.4l1.8,0.1
		C115.2,32.4,115.4,32.6,115.4,32.8C115.4,32.8,115.4,32.8,115.4,32.8L115.4,32.8z M111.1,22.6c0.8,0.1,1.4,0.9,1.3,1.7
		c0,0.1,0,0.1,0,0.2c-0.2-0.8-1.1-1.3-1.9-1.1c-0.4,0.1-0.8,0.4-1,0.8c-0.1-0.8,0.5-1.6,1.4-1.7C111,22.6,111.1,22.6,111.1,22.6
		L111.1,22.6z M106.1,23.4l1.4-0.4c-0.2,1.5-0.3,2.7-0.4,4l-1-0.4C106.8,25.7,106.8,24.4,106.1,23.4L106.1,23.4z M107.9,28.7l0.4-4
		l0.1-0.6l0.1,0.5c0.2,0.7,0.7,1.3,1.3,1.7c-0.1-0.2-0.1-0.4,0-0.6c0.1-0.7,0.8-1.2,1.6-1.1c0.3,0.1,0.6,0.2,0.8,0.5
		c0.1,0.2,0.3,0.4,0.3,0.6c0,0.1,0,0.2,0,0.3c0,0.1,0.1,0.3,0.1,0.4l0,0c-0.2,0.2-0.3,0.4-0.3,0.7c-0.1,0.6,0.3,1.1,0.9,1.2l0,0
		c-0.8,1.5-2.6,2.3-4.3,1.9c-1.3-0.3-2.4-1.2-2.9-2.4L107.9,28.7z M111.5,32.5c0,0.2-0.2,0.4-0.4,0.4c0,0,0,0,0,0l-1.8-0.1
		c-0.2,0-0.4-0.2-0.4-0.4c0-0.2,0.2-0.4,0.4-0.4c0,0,0,0,0,0l1.8,0.1C111.3,32.1,111.5,32.3,111.5,32.5
		C111.5,32.5,111.5,32.5,111.5,32.5L111.5,32.5z M102.8,30.5l1-1.7h0.8l1,1.7H102.8z M103.6,32.3c0,0.2-0.2,0.4-0.4,0.4l0,0h-1.8
		c-0.2,0-0.4-0.2-0.4-0.4c0-0.2,0.2-0.4,0.4-0.4c0,0,0,0,0,0h1.8C103.4,31.9,103.6,32.1,103.6,32.3L103.6,32.3z M105.4,31.9h1.8
		c0.2,0,0.4,0.2,0.4,0.4c0,0,0,0,0,0c0,0.2-0.2,0.4-0.4,0.4h-1.8c-0.2,0-0.4-0.2-0.3-0.5C105,32.1,105.2,32,105.4,31.9L105.4,31.9z
		 M105.7,20.9l-1.1,1.7h-0.3h-0.1h-0.3l-1.1-1.7H105.7z M104.3,23.3L104.3,23.3c0.9,0.1,1.6,0.9,1.6,1.8c-0.1,0.8-0.7,1.5-1.6,1.6
		l0,0c-0.9-0.1-1.6-0.9-1.6-1.8C102.8,24,103.4,23.3,104.3,23.3z M102.4,23.4c-0.4,0.4-0.6,1-0.6,1.5c0,0.6,0.2,1.1,0.6,1.6l-1,0.4
		c-0.1-1.3-0.2-2.5-0.4-4L102.4,23.4z M97.4,22.6c0.8-0.1,1.6,0.5,1.6,1.4c0,0.1,0,0.2,0,0.3c-0.3-0.5-0.9-0.9-1.5-0.8
		c-0.6,0.1-1.1,0.5-1.3,1.2c-0.2-0.8,0.2-1.7,1-1.9C97.2,22.6,97.3,22.6,97.4,22.6L97.4,22.6z M95.4,28.3c0.6-0.1,1-0.7,0.9-1.2
		c0-0.2-0.1-0.5-0.3-0.7l0,0c0.1-0.1,0.1-0.3,0.1-0.4c0-0.1,0-0.2,0-0.3c0.1-0.2,0.2-0.4,0.3-0.6c0.5-0.6,1.3-0.6,1.9-0.1
		c0.2,0.2,0.4,0.5,0.4,0.7c0,0.2,0,0.4,0,0.6c0.6-0.4,1.1-1,1.3-1.7l0.1-0.5l0.1,0.6l0.4,4l1.9-1c-0.5,1.2-1.6,2.1-2.9,2.4
		C98,30.5,96.2,29.8,95.4,28.3L95.4,28.3z M99.7,32.4c0,0.2-0.2,0.4-0.4,0.4l-1.8,0.1c-0.2,0-0.4-0.2-0.3-0.5c0-0.2,0.2-0.3,0.3-0.3
		l1.8-0.1C99.5,32.1,99.6,32.2,99.7,32.4L99.7,32.4z M93.5,32.4l1.8-0.1c0.2,0,0.4,0.2,0.4,0.4c0,0.2-0.2,0.4-0.4,0.4l-1.8,0.1
		c-0.2,0-0.4-0.2-0.4-0.4c0,0,0,0,0,0C93.1,32.6,93.2,32.4,93.5,32.4C93.5,32.4,93.5,32.4,93.5,32.4L93.5,32.4z M92.1,31.1l0.9-1.7
		l0.7-0.1l1.3,1.5L92.1,31.1z M95.3,27.1c0,0.2-0.1,0.4-0.4,0.4c0,0,0,0,0,0L91.3,28c-0.2,0-0.4-0.1-0.4-0.4c0-0.2,0.1-0.4,0.4-0.4
		l3.7-0.4C95.1,26.8,95.3,26.9,95.3,27.1L95.3,27.1z M91.8,33c0,0.2-0.1,0.4-0.4,0.4l-1.8,0.2c-0.2,0-0.4-0.2-0.4-0.4
		c0-0.2,0.1-0.4,0.3-0.4l1.8-0.2C91.6,32.6,91.7,32.8,91.8,33L91.8,33z M92.2,19l2.6,2.4l-0.9,4.5h-0.5l0.1-3l-0.9-1.3l-0.7,1.5
		l0.7,2.9L92,26.1l-1.8-4.2L92.2,19z M87.9,23.6c0.9,0,1.6,0.6,1.6,1.5c0,0.1,0,0.1,0,0.2c-0.3-0.5-0.9-0.9-1.5-0.8
		c-0.6,0.1-1.1,0.5-1.3,1.1c-0.2-0.8,0.2-1.7,1-1.9C87.8,23.6,87.8,23.6,87.9,23.6z M87.2,27.5c-0.1-0.2-0.1-0.4-0.1-0.6
		c0-0.7,0.6-1.3,1.3-1.3c0,0,0,0,0.1,0c0.3,0,0.6,0.1,0.8,0.3c0.2,0.1,0.3,0.3,0.4,0.5c0,0.1,0.1,0.2,0.1,0.3c0,0.1,0.1,0.3,0.2,0.4
		l0,0c-0.1,0.2-0.2,0.5-0.1,0.7c0.1,0.6,0.5,1,1.1,1l0,0c-0.5,1.7-2.1,2.8-3.8,2.7c-1,0-1.9-0.3-2.7-0.9l0,0l2.8,0.2l-1.6-4.6
		C86,26.7,86.6,27.2,87.2,27.5L87.2,27.5z M87.9,33.5c0,0.2-0.1,0.4-0.3,0.5c0,0,0,0,0,0l-1.8,0.3c-0.2,0-0.4-0.1-0.5-0.3
		c0,0,0,0,0,0c0-0.2,0.1-0.4,0.3-0.5c0,0,0,0,0,0l1.8-0.3C87.6,33.1,87.8,33.2,87.9,33.5L87.9,33.5z M83.4,27l0.9-1.4l1.5,3.9
		c0,0-1,0-1.4-0.1c0-0.1,0-0.2,0-0.2C84.4,28.3,84,27.5,83.4,27L83.4,27z M82.5,35c-0.2,0-0.4-0.1-0.5-0.3c0-0.2,0.1-0.4,0.3-0.5
		l0,0l1.1-0.3c0.2,0,0.4,0.1,0.5,0.3c0.1,0.2-0.1,0.4-0.3,0.5c0,0,0,0,0,0L82.5,35z M125,45.6c-0.3,1.2-1.4,2-2.6,1.7c0,0,0,0,0,0
		l-0.8-0.2c-5.7-1-11.5-1.5-17.3-1.5c-4.6,0-9.1,0.3-13.6,0.9c-1.6,0.2-3.1,0.5-4.6,0.8c-1.2,0.3-2.4-0.5-2.6-1.7c0,0,0,0,0,0
		c-0.3-1.2,0.5-2.4,1.7-2.6c0,0,0,0,0,0c6.3-1.2,12.7-1.8,19.1-1.8c6.4-0.1,12.7,0.5,19,1.7C124.5,43.2,125.2,44.4,125,45.6
		L125,45.6z M124.4,41.8c-0.3-0.1-0.5-0.2-0.8-0.3c-6.4-1.2-12.8-1.8-19.3-1.8c-6.5-0.1-13,0.5-19.4,1.8c-0.2,0.1-0.5,0.1-0.7,0.2
		l-0.7-5.4c0.2-0.1,0.7-0.2,1.1-0.3c6.5-1.2,13.1-1.8,19.7-1.7c6.6-0.1,13.2,0.5,19.7,1.7l1.2,0.3L124.4,41.8z M126.5,34.6
		c-0.1,0.2-0.3,0.4-0.5,0.3l-1.1-0.3c-0.2,0-0.4-0.3-0.3-0.5c0,0,0,0,0,0c0-0.2,0.3-0.4,0.5-0.3l0,0l1.1,0.3
		C126.4,34.1,126.5,34.4,126.5,34.6C126.5,34.6,126.5,34.6,126.5,34.6z"/>
	<polygon class="st0" points="92.5,21.6 92.5,21.6 92.5,21.6 	"/>
	<polygon class="st0" points="116,21.6 116,21.6 116,21.6 	"/>
	<path class="st0" d="M104.2,26.1c0.6,0,1.1-0.5,1.1-1.1c0-0.6-0.5-1.1-1.1-1.1c-0.6,0-1.1,0.5-1.1,1.1
		C103.1,25.6,103.6,26.1,104.2,26.1C104.2,26.1,104.2,26.1,104.2,26.1z"/>
	<path class="st0" d="M85.7,38.5l3.6,1.3l3-2.3l-3.6-1.3L85.7,38.5z M90.5,37.8l-1.4,1.1l-1.7-0.6l1.4-1.1L90.5,37.8z"/>
	<path class="st0" d="M100.9,42.6l-3.3,0.1c-0.5,0-0.8,0.4-0.8,0.8c0,0.5,0.4,0.8,0.8,0.8l3.3-0.1c0.5,0,0.8-0.4,0.8-0.8
		C101.7,42.9,101.4,42.6,100.9,42.6L100.9,42.6z"/>
	<path class="st0" d="M110.8,42.7l-3.3-0.1c-0.5,0-0.8,0.3-0.8,0.8c0,0.5,0.3,0.8,0.8,0.8l3.3,0.1c0.5,0,0.8-0.3,0.8-0.8
		C111.6,43.1,111.3,42.7,110.8,42.7z"/>
	<path class="st0" d="M100.9,36.8l3.3,1.8l3.3-1.8l-3.3-1.8L100.9,36.8z M104.2,37.7l-1.6-0.9l1.6-0.9l1.6,0.9L104.2,37.7z"/>
	<path class="st0" d="M98.4,35.7L94.6,36c-0.3,0-0.5,0.2-0.4,0.5l0.1,1.8c0,0.3,0.2,0.4,0.5,0.4c0,0,0,0,0,0l3.8-0.3
		c0.3,0,0.4-0.2,0.4-0.5l-0.1-1.8C98.9,35.9,98.7,35.7,98.4,35.7z M95.2,37.8c0-0.3,0-0.7-0.1-1l3-0.2c0,0.3,0.1,0.7,0.1,1
		L95.2,37.8z"/>
	<path class="st0" d="M99.4,109.1c-0.2,0-5.7,0.1-8.6,4.7c-1.9,2.7-4.3,4.9-7.2,6.5l7.4,2.9c2.6-2.2,4.7-4.9,6-8
		c0.7-1.7,1.8-3.2,3.2-4.3L99.4,109.1z M96,114.9c-1.2,2.8-3,5.3-5.3,7.3l-5.1-2c2.3-1.5,4.3-3.5,5.9-5.8c0.2-0.3,0.3-0.5,0.5-0.7
		c0,0.6-0.1,2-1.8,4c1.1-0.7,2.2-1.5,3-2.6c1.1-1.4,1.5-1.5,1.2-0.8c-0.4,0.9-1,1.8-1.6,2.5c0,0,1.4-0.1,3-2.3
		c0.4-0.6,0.8-1.1,1.4-1.6C96.7,113.5,96.3,114.2,96,114.9L96,114.9z"/>
	<path class="st0" d="M117.7,113.8c-2.9-4.6-8.4-4.7-8.6-4.7l-0.8,1.9c1.4,1.1,2.5,2.6,3.2,4.3c1.3,3.1,3.4,5.8,6,8l7.4-2.9
		C122,118.8,119.5,116.5,117.7,113.8z M112.3,114.9c-0.3-0.7-0.6-1.4-1.1-2c0.5,0.4,1,1,1.4,1.6c1.6,2.2,3,2.3,3,2.3
		c-0.7-0.7-1.2-1.6-1.6-2.5c-0.4-0.8,0.1-0.7,1.2,0.8c0.8,1,1.9,1.9,3,2.6c-1.8-2-1.9-3.4-1.9-4c0.2,0.2,0.4,0.5,0.5,0.7
		c1.5,2.3,3.6,4.3,5.9,5.8c-1.9,0.7-4.4,1.7-5.1,2C115.4,120.2,113.6,117.7,112.3,114.9z"/>
	<path class="st0" d="M107.1,112c0,0,0.8-1,1.4-6.8c0.1-2-0.4-4-1.3-5.8c-0.1-0.2-0.3-0.4-0.4-0.6c-0.2-0.1-0.5-0.2-0.7-0.2
		c-0.2,0-0.3,0-0.4,0.1c-0.1,0.1,0.1,0.5,0.2,0.7c1,1.8,1.5,3.8,1.5,5.8c0,4.5-1.9,5.4-3.2,5.4c-0.9,0-2.4-1.7-2.4-1.7
		c-0.2-0.2-0.3-0.3-0.2-0.3c0.2,0,0.3,0,0.5,0c0.2,0,0.4,0,0.6-0.1c0.2,0,0.2-0.4,0.2-0.7l-0.4-5.5c0-0.3-0.1-0.3-0.2-0.1l-0.9,4.9
		c-0.1,0.2-0.1,0.2-0.2,0c-0.1-0.6-0.2-1.3-0.2-1.9c0-2,0.6-4,1.5-5.8c0.1-0.2,0.2-0.4,0.3-0.6c0-0.1-0.4-0.2-0.5-0.2
		c-0.2,0-0.4,0-0.5,0.1c-0.2,0.2-0.4,0.5-0.6,0.8c-0.8,1.8-1.3,3.8-1.4,5.8c0,4.6,2,6.4,4.4,6.4c0.5,0,0.9-0.1,1.4-0.2
		c0.2-0.1,0.4-0.1,0.4,0s-0.2,0.2-0.1,0.3S106.7,112.3,107.1,112z"/>
	<path class="st0" d="M105.1,98.7c0-0.3-0.2-0.5-0.5-0.5h-0.4c-0.3,0-0.5,0.2-0.5,0.4c0,0,0,0,0,0c0.3,3.2,0.4,6.4,0.4,9.6
		C105,105.1,105.3,101.9,105.1,98.7z"/>
	<path class="st0" d="M52.7,62.9c1,1.9,2.3,3.7,3.7,5.4c0.9,1.1,1-0.3,1-0.3C60.2,55,65,47.3,65,47.3c-2.2,4.7-6.6,20-6.7,23.2
		s2.2,1.3,2.2,1.3c0.5-0.4,0.9-1,1-1.6c-0.2,0.1-0.5,0.2-0.7,0.2c-1.4,0.5-0.4-0.5,1.3-2c0.4-0.4,0.7-0.9,0.7-1.4
		c-0.5,0.4-1,0.7-1.6,0.8c-1.5,0.4,0.2-0.8,1.9-2.6c0.2-0.2,0.3-0.4,0.4-0.6c-0.7,0.4-1.4,0.6-2.1,0.6c-1.5,0.2,0.3-0.8,2.2-2.3
		c0.6-0.4,1.1-1,1.3-1.7c-0.7,0.7-1.7,1.1-2.7,1.1c-1.5,0.1,0.3-0.6,2.2-1.9c0.6-0.3,1-0.8,1.3-1.4c-1,0.5-2.1,0.8-3.2,0.8
		c-1.8,0.1,0.3-0.7,2.6-2c0.7-0.3,1.2-0.8,1.6-1.5c-1,0.5-2.1,0.8-3.2,0.8c-1.8,0.1,0.3-0.8,2.6-2s2.9-2.3,2.9-2.3
		c-1.4,0.7-2.9,1.2-4.4,1.4c-1.8,0.1,0.3-0.8,2.6-2c1.4-0.7,2.7-1.6,3.7-2.8c-1.8,0.8-3.6,1.4-5.6,1.7c-1.8,0.1,0-0.7,2.4-1.8
		c1.6-0.8,3-1.9,4.2-3.2c-0.6,0.3-3.8,1.7-5.3,1.8s0-0.3,2.1-1.3c1.5-0.8,2.9-1.9,4-3.2c-1.5,0.7-3.1,1.1-4.7,1.3
		c-1.6,0.1,0-0.6,2.1-1.6c1.4-0.7,2.7-1.7,3.7-2.9c-1.4,0.8-3,1.3-4.6,1.6c-1.6,0.2-0.1-0.6,1.9-1.7c1.3-0.8,2.5-1.9,3.5-3.1
		c-1.2,0.7-2.4,1.3-3.7,1.7c-1.3,0.3,0.1-0.3,1.7-1.4c1.1-0.8,2-1.7,2.7-2.8c-1,0.7-2.2,1.2-3.3,1.6c-1.2,0.2,0.1-0.3,1.5-1.3
		c1-0.7,1.7-1.7,2-2.9c0,0-2.2,1.6-2.3,1.1s0.4-2,1.7-3c-0.9,0.3-1.7,0.8-2.2,1.6c0.2-0.7,0.5-1.4,0.8-2c-1.4,1.1-2.2,2.7-2.5,4.4
		c0,0-0.4-2.6,0-3.4c-0.8,0.9-1.2,3-1.4,4.3c-0.1,0.4-0.1,1.7-0.7,1.1c-0.3-0.3,0-4.3,0-4.3c-0.7,1.1-1.1,2.4-1.2,3.8
		c-0.1,2.2,0.3,5.2-0.6,4s-0.7-3.8-0.8-4.4c-0.6,1.5-0.8,3.1-0.7,4.7c0.4,2.3,0.5,4-0.3,2.8s-0.9-3.3-1.1-4c-0.3,1.7-0.3,3.3-0.1,5
		c0.4,2,0.4,3-0.3,2.1c-1-1.2-0.9-4.2-1.1-4.8c-0.5,1.7-0.6,3.5-0.2,5.2c0.6,2.7,0.4,3.3-0.2,2.5c-1.1-1.4-1.2-4.2-1.4-4.9
		c-0.4,1.5-0.5,3-0.3,4.5c0.3,2.6,1.1,4.9,0.1,3.4c-0.7-1.2-1.2-2.5-1.4-3.9c-0.4,1.3-0.4,2.6-0.2,3.9c0.7,2.5,1.2,5,0,3.6
		s-1.2-3.8-1.5-4.5c-0.2,1.1-0.3,2.2-0.2,3.4c0.6,2.6,1.6,5.7,0.4,4.3c-0.9-1.3-1.5-2.8-1.9-4.4c-0.1,1.1,0,2.2,0.2,3.3
		c0.4,2.3,1.7,5.6,0.7,4.3c-1-1.4-1.7-3-2.2-4.7c-0.2,0.9-0.2,1.7,0,2.6c0.5,1.6,1,3.2,1.3,4.8C56.2,65.4,54.3,64.3,52.7,62.9z"/>
	<path class="st0" d="M64.7,81.7c-0.4-1.6-0.9-3.2-1.5-4.8c-0.2-0.9-0.3-1.8-0.2-2.6c0.5,1.7,1.3,3.2,2.3,4.6c1,1.2-0.4-2.1-0.9-4.4
		c-0.2-1.1-0.3-2.2-0.3-3.3c0.4,1.5,1.1,3,2,4.3c1.2,1.3,0-1.8-0.6-4.4c-0.2-1.1-0.2-2.3,0-3.4c0.3,0.7,0.5,3.2,1.6,4.5
		s0.6-1.1-0.2-3.7c-0.3-1.3-0.3-2.6-0.1-3.9c0.3,1.4,0.8,2.7,1.6,3.9c1,1.4,0.1-0.9-0.3-3.5c-0.2-1.5-0.2-3.1,0-4.6
		c0.3,0.7,0.5,3.5,1.6,4.9c0.6,0.8,0.8,0.1,0.1-2.6c-0.4-1.7-0.4-3.6-0.1-5.3c0.2,0.6,0.2,3.7,1.3,4.8c0.7,0.8,0.7-0.2,0.2-2.2
		c-0.3-1.7-0.4-3.4-0.2-5.1c0.2,0.6,0.4,2.7,1.3,3.9s0.6-0.5,0.1-2.9c-0.3-1.6-0.1-3.2,0.4-4.8c0.2,0.6,0.1,3.2,1,4.4
		s0.4-1.9,0.4-4.1c0-1.4,0.3-2.7,0.9-3.9c0,0-0.1,4.1,0.2,4.4c0.6,0.6,0.6-0.8,0.6-1.2c0.2-1.4,0.4-3.6,1.1-4.5
		c-0.4,0.9,0.2,3.5,0.2,3.5c0.4-3.3,2.3-5,2.1-4.6c-0.3,0.6-0.5,1.3-0.6,2c0.5-0.8,1.2-1.4,2-1.8c-1.1,1.1-1.6,2.8-1.4,3.3
		s2.2-1.2,2.2-1.2c-0.2,1.2-0.8,2.2-1.7,3.1c-1.3,1.1-2.5,1.7-1.4,1.4c1.1-0.4,2.1-1,3.1-1.8c-0.6,1.1-1.4,2.2-2.4,3
		c-1.4,1.2-2.7,1.9-1.5,1.5c1.2-0.5,2.4-1.1,3.4-1.9c-0.8,1.3-1.9,2.5-3.1,3.4c-1.8,1.3-3.2,2.2-1.7,1.9c1.5-0.4,2.9-1.1,4.2-1.9
		c-0.9,1.2-2,2.3-3.3,3.2c-1.9,1.1-3.3,1.9-1.9,1.8c1.5-0.3,3-0.9,4.3-1.7c-1,1.3-2.2,2.5-3.6,3.5c-1.9,1.1-3.4,1.7-1.9,1.5
		c1.5-0.2,4.4-1.8,4.9-2.2c-1,1.4-2.3,2.6-3.8,3.5c-2.2,1.3-3.8,2.2-2.1,2c1.8-0.4,3.5-1.2,5.2-2.1c-0.9,1.2-2.1,2.2-3.3,3
		c-2.1,1.3-4,2.4-2.4,2.2c1.5-0.3,2.9-0.9,4.1-1.7c-0.6,1.1-1.5,1.9-2.6,2.5c-2.1,1.3-4,2.4-2.4,2.2c1.1-0.1,2.1-0.5,3-1.1
		c-0.3,0.7-0.8,1.3-1.4,1.6c-2.1,1.4-4,2.4-2.4,2.2c1.1-0.1,2.1-0.4,3-1c-0.2,0.6-0.6,1.1-1.2,1.5c-1.8,1.4-3.4,2.3-2,2.1
		c0.9-0.1,1.8-0.6,2.4-1.3c-0.2,0.7-0.6,1.4-1.1,1.8c-1.8,1.7-3.4,2.8-2,2.5c0.7-0.1,1.4-0.4,2-0.8c-0.1,0.2-0.2,0.5-0.3,0.7
		c0,0-3,3.7-3.1,1.3s1.8-15.4,3.3-18.6c0,0-5.7,13-4.9,26.3c0,0-4.4-3.3-4.7-7.2c0,0,1,2.2,2.3,2.8s1.1,0.1,0.1-1.1
		c-1.3-1.7-2-3.8-2.2-6c0,0,2.4,4.5,2.6,2.4"/>
	<path class="st0" d="M60.6,80.1c0-1.1,0-2.2-0.2-3.3c-0.2,1.6-0.6,3.1-1.4,4.6c-1,1.4-0.3-1.8,0-4.4c0-1.1-0.2-2.2-0.6-3.3
		c-0.1,0.7,0,3.2-1,4.6s-0.8-1-0.4-3.6c0.1-1.3-0.1-2.6-0.6-3.8c-0.1,1.4-0.4,2.7-1,4c-0.9,1.5-0.2-0.8-0.3-3.4c0-1.5-0.3-3-0.8-4.4
		c-0.2,0.7,0.1,3.5-0.9,5c-0.5,0.9-0.8,0.2-0.5-2.5c0.1-1.8-0.2-3.5-0.8-5.2c-0.1,0.6,0.3,3.6-0.6,4.9c-0.6,0.9-0.8,0-0.6-2.1
		c0.1-1.7-0.2-3.3-0.6-5c-0.1,0.6,0,2.7-0.7,4.1c-0.7,1.4-0.7-0.4-0.6-2.8c0-1.6-0.4-3.2-1.2-4.6c-0.1,0.6,0.4,3.1-0.3,4.5
		c-0.8,1.4-0.7-1.8-1.1-3.9c-0.2-1.3-0.8-2.6-1.6-3.6c0,0,0.8,3.9,0.5,4.3c-0.5,0.6-0.7-0.7-0.8-1c-0.4-1.3-1-3.4-1.9-4.2
		c0.6,0.8,0.4,3.4,0.4,3.4c-0.9-3.2-3.3-4.4-2.9-4.1c0.4,0.6,0.7,1.2,1,1.8c-0.6-0.7-1.5-1.1-2.4-1.3c1.4,0.9,2.2,2.4,2,2.9
		s-2.4-0.8-2.4-0.8c0.5,1.1,1.2,2,2.3,2.7c1.5,0.8,2.8,1.2,1.7,1.1c-1.2-0.2-2.4-0.6-3.5-1.2c0.8,1,1.9,1.8,3,2.5
		c1.7,0.9,3.2,1.3,1.8,1.2c-1.3-0.2-2.6-0.7-3.9-1.3c1.1,1.1,2.4,2,3.8,2.7c2.1,0.9,3.7,1.5,2.1,1.5c-1.6-0.1-3.2-0.5-4.7-1.1
		c1.2,1.1,2.5,1.9,4,2.5c2.2,0.8,3.8,1.3,2.2,1.4c-1.6,0-3.2-0.3-4.8-0.8c1.3,1.1,2.7,2.1,4.3,2.7c2.2,0.8,3.8,1,2.2,1.1
		s-4.9-1-5.5-1.2c1.3,1.2,2.9,2.1,4.6,2.8c2.5,0.8,4.3,1.4,2.5,1.5c-1.9-0.1-3.9-0.5-5.7-1.1c1.2,1,2.5,1.8,4,2.3
		c2.4,0.9,4.6,1.6,2.8,1.7c-1.6,0-3.1-0.3-4.6-0.9c0,0,0.6,1,3.1,1.9s4.6,1.6,2.8,1.7c-1.1,0.1-2.3-0.1-3.3-0.5
		c0.4,0.6,1,1.1,1.7,1.3c1.7,0.8,3.2,1.7,4.7,2.8c1.5,1.2,1,0.1,0.7-0.7c0,0-4.7-10.2-8.6-16.1c0,0,5.8,8.5,7.3,11.6
		c2,4.4,2.6,6.5,3.5,7c0.6,0.3,1.5-2.2,1.3-5.9"/>
	<path class="st0" d="M58.1,100.9c0.7-0.2,3.2-0.4,4.7-1.5s-1.8-0.3-4.6,0c-1.2,0-2.4-0.2-3.5-0.5c0.8-0.2,3.3,0,4.8-1.1
		s-1.1-0.8-3.8-0.3c-1.4,0.1-2.7-0.1-4-0.6c1.5-0.1,2.9-0.5,4.2-1.1c1.6-0.9-0.9-0.2-3.6-0.2c-1.6,0-3.2-0.3-4.7-0.8
		c0.8-0.2,3.7,0,5.3-1c0.9-0.6,0.2-0.8-2.6-0.5c-1.8,0.2-3.7-0.1-5.4-0.8c0.7-0.2,3.8,0.3,5.1-0.6c0.9-0.7,0-0.8-2.2-0.6
		c-1.8,0.1-3.5-0.1-5.2-0.6c0.7-0.1,2.8,0,4.2-0.8s-0.4-0.8-2.9-0.6c-1.7,0-3.3-0.3-4.8-1.1c0.7-0.1,3.3,0.4,4.7-0.4
		s-1.8-0.7-4.1-1.1c-1.4-0.2-2.7-0.8-3.8-1.6c0,0,4.1,0.8,4.5,0.5c0.7-0.6-0.7-0.8-1.1-0.9c-1.4-0.4-3.6-1-4.4-1.9
		c0.8,0.6,3.6,0.4,3.6,0.4c-3.3-1-4.7-3.4-4.3-3.1c0.6,0.4,1.3,0.8,1.9,1.1c-0.7-0.7-1.2-1.5-1.4-2.5c0.9,1.4,2.6,2.3,3.1,2.1
		S37,77.9,37,77.9c1.2,0.5,2.1,1.3,2.8,2.4c0.9,1.6,1.3,3,1.2,1.8c-0.2-1.3-0.7-2.5-1.3-3.7c1.1,0.9,2,1.9,2.6,3.1
		c1,1.8,1.4,3.4,1.3,1.9c-0.3-1.4-0.7-2.8-1.4-4.1c1.2,1.2,2.2,2.5,2.9,4.1c1,2.2,1.6,3.9,1.6,2.2c-0.2-1.7-0.6-3.4-1.2-5
		c1.1,1.2,2,2.7,2.6,4.2c0.8,2.3,1.4,4,1.5,2.4c-0.1-1.7-0.4-3.4-0.9-5.1c1.2,1.4,2.2,2.9,2.9,4.6c0.8,2.3,1.1,4.1,1.2,2.4
		s-1.1-5.2-1.3-5.9c1.3,1.4,2.3,3,2.9,4.8c0.9,2.6,1.5,4.6,1.6,2.7c-0.1-2.1-0.5-4.1-1.2-6.1c1.1,1.3,1.9,2.7,2.5,4.2
		c1,2.6,1.8,4.9,1.8,3c-0.1-1.8-0.5-3.5-1.3-5.1c1.1,0.9,1.9,2.2,2.4,3.6c1,2.6,2,4.7,1.9,2.8c-0.1-1.4-0.4-2.8-0.9-4.1
		c1.2,1.9,2.1,3.9,2.7,6c0.4,1.7,0.9,0.6,0.8-0.3c-0.5-1.6-1-3.1-1.7-4.6c0,0,1.7,0.9,2.9,4s2.1,3.1,1.8,2.1S66.4,93,66.4,93
		c1.2,1.2,2.2,2.5,2.9,4.1c0.8,2.1,0.6,2.8-0.7,2.1s-14.3-6.8-20.5-10.9c0,0,8.9,5.9,12.2,7.4c4.7,2.1,6.9,3.2,7.5,3.9
		s-2.3,1.6-6.1,1.5L58.1,100.9z"/>
	<path class="st0" d="M91.9,109.1c-1-0.4-6.4,1.4-13,1.5c-6.2-0.1-12.3-0.6-18.4-1.5c16.3,1.3,26.3-0.2,26.7-1.1s-2-2.3-2-2.3
		c-3.1-2.5-5.5-2.5-5.5-2.5c1.6,1.2,3.2,2.4,4.6,3.8c0.7,0.9,0.6,2.3-0.8,0.7c-2.1-2.3-6.6-4.7-6.6-4.7c1.3,1,2.5,2.3,3.4,3.7
		c1.2,1.9-1.2,0.3-3.8-1.9c-1.3-1.2-3-2-4.8-2.4c1.8,1.2,3.3,2.7,4.4,4.6c1,1.9-1.1,0-3.8-2.1c-1.6-1.3-3.4-2.3-5.3-3
		c0.7,0.6,3.9,3.6,4.9,5.5s-0.8,0.3-3.4-1.9c-1.8-1.5-3.9-2.6-6.1-3.4c0.6,0.5,4,3.5,4.9,5.2s-0.4,0.1-2.7-1.8
		c-1.8-1.4-3.8-2.4-5.9-3.1c1.6,1.4,2.9,2.9,4,4.7c0.9,1.7-0.7,0.3-3-1.6c-1.6-1.3-3.5-2.3-5.4-2.9c1.6,1.3,3,2.8,4.2,4.4
		c1,1.7-0.7,0.3-3.1-1.4c-1.7-1.2-3.6-2.1-5.6-2.6c1.5,1,2.8,2.1,3.9,3.4c1,1.4-0.4,0-2.6-1.3c-1.5-0.9-3.1-1.5-4.8-1.8
		c1.3,0.9,2.5,1.9,3.6,3.1c0.9,1.2-0.4,0-2.3-1.2c-1.4-0.8-3-1.1-4.6-1c0,0,3,1.8,2.5,2.2s-2.9,0.4-4.8-0.6c0.8,0.9,1.9,1.5,3.1,1.8
		c-0.9,0.1-1.9,0.1-2.8-0.1c-0.6-0.2,2.4,1.6,6.7,0.9c0,0-3,1.6-4.3,1.4c1.5,0.5,4.3,0,6.1-0.3c0.5-0.1,2.2-0.6,1.7,0.3
		c-0.2,0.5-5.4,1.8-5.4,1.8c1.8,0.3,3.6,0.2,5.3-0.3c2.8-0.8,6.4-2.6,5.3-1s-4.4,2.4-5.1,2.8c2.1,0.1,4.2-0.4,6.1-1.2
		c2.7-1.4,4.8-2.4,3.6-0.9s-3.7,2.5-4.4,3c2.2-0.4,4.3-1.1,6.2-2.1c2.3-1.3,3.5-1.7,2.8-0.5c-1,1.7-4.8,2.8-5.4,3.3
		c2.3-0.2,4.6-0.9,6.6-2c3-1.8,3.9-1.9,3.2-0.9c-1.2,1.8-4.7,3.1-5.4,3.7c2-0.2,3.9-0.8,5.7-1.6c3.1-1.4,5.5-3.4,4.2-1.6
		c-1.2,1.3-2.5,2.5-4.1,3.3c1.7-0.1,3.4-0.6,4.9-1.5c2.8-1.9,5.6-3.4,4.5-1.6s-4.1,3-4.9,3.6c1.5-0.2,2.9-0.6,4.3-1.2
		c2.9-1.7,6.3-4.2,5.2-2.3s-3.8,3.4-4.5,4c0,0,5.3-1.4,7.6-3.6s0.8,0.1,0,1.1c-0.5,0.6-1,1.2-1.4,1.9
		C86.5,116,93.7,110.7,91.9,109.1L91.9,109.1z"/>
	<path class="st0" d="M97.5,103.4c2.6,0.2,2-1.5,1.8-3.2s-0.2-2-0.2-2s-1.1,0.5-0.8,3c-0.6-0.8-1.1-1.6-1.4-2.6c0,0-0.6,0.1-0.8,1.9
		c0,0-1.6-1.1-1.3-2.5c-0.7,0.8-1.1,1.8-0.9,2.9c0,0-1.2-2.3-0.8-3.4c0,0-1.1,0.2-1.1,2.2c0,0-1.2-2.3-0.8-3.4c0,0-1,0.3-1,2.3
		c0,0-1-2.4-0.6-3.5c0,0-1.2,0.1-1.1,2.7l0,0c0,0-1.1-3-0.6-4.4c0,0-1.2,0.3-1.3,2.9c0,0-1-2.8-0.4-3.9c0,0-1,0.3-1.1,2.9
		c0,0-0.9-3.9-0.2-5.6c0,0-1.6-0.1-1.7,4.1c0,0-0.9-5.1-0.2-7.4c0,0-1.6-0.1-1.7,5.3c0,0-1.2-5.6-0.7-8.4c0,0-1.2,0.6-1.4,5.4
		c0,0-0.7-6.3-0.1-9.3c0,0-1.3,2.1-1.6,7.5c0,0-0.4-6.7,0.1-9.9c0,0-1,0.5-1.4,6.2c0,0,0.1-6.2-0.6-7.1c0,1.2-0.1,2.3-0.3,3.4
		c-0.3-1-0.7-1.9-1.2-2.7c-0.4,0.3,0.3,3.1,0.3,3.1c-0.3-0.5-0.6-0.9-1-1.2c0.1,1.4,0.3,2.8,0.7,4.2c-0.5-0.3-0.9-0.7-1.2-1.2
		c-0.3,1.2,0,2.5,0.8,3.4c1.4,1.5,2.2,2.8,0.7,1.7s-2.3-1.6-2.4-2.3c0.2,1.5,0.9,3,2.1,4c1.8,1.4,3.1,2.7,1.3,1.9s-2.7-1.1-3.1-2
		c0.6,1.5,1.8,2.7,3.3,3.4c2.4,1,4.1,2,1.9,1.6s-3.3-0.5-3.9-1.3c0.7,1.4,1.9,2.4,3.3,3c2.3,0.8,4,1.6,1.9,1.4s-3.1-0.3-3.7-0.9
		c0.9,1.2,2.3,2,3.8,2.3c2.4,0.3,4.2,0.7,2.1,1s-3.1,0.4-3.8-0.1c0.9,1,2.2,1.6,3.6,1.7c2.1,0,3.8,0.3,2,0.7s-2.7,0.6-3.3,0.2
		c1.1,0.8,2.5,1.2,3.8,1c2.1-0.4,3.7-0.5,2.1,0.3c-1.1,0.5-1.1,0.7-2.1,0.9c1.1,0.5,2.4,0.7,3.6,0.6c2-0.2,3.6,0.2,2,0.7
		c-0.6,0.3-1.3,0.4-2,0.5c1.1,0.5,2.4,0.6,3.6,0.5c2-0.3,3.8-0.4,2.3,0.1c-0.6,0.3-1.3,0.5-2,0.6c1.2,0.3,2.5,0.3,3.7,0
		c1.9-0.6,3.4-0.4,2,0.3c-0.6,0.4-1.2,0.7-1.9,0.9c1.2,0.1,2.5-0.1,3.6-0.6c0,0,2.1-1.9-0.3-2.5s-11.5-2.4-16.9-9.3
		C80.9,95.1,88.4,102.7,97.5,103.4z"/>
	<path class="st0" d="M71.3,98.5c0.5,1.2,1.5,2.1,2.7,2.5c2.2,0.9,3.9-0.1,3-1.3c-0.8-1-1.8-0.2-3.3-0.4
		C72.9,99.2,72.1,98.9,71.3,98.5z"/>
	<path class="st0" d="M69.7,95.2c0.4,1,1.3,1.8,2.3,2.2c1.9,0.9,3.5,0.1,2.7-1c-0.7-0.9-1.6-0.3-2.9-0.5
		C71.1,95.8,70.3,95.6,69.7,95.2z"/>
	<path class="st0" d="M68.6,92.4c0.4,0.9,1.2,1.6,2.1,1.9c1.7,0.7,3.2,0.1,2.4-0.8c-0.6-0.8-1.5-0.2-2.6-0.4
		C69.9,93,69.2,92.8,68.6,92.4z"/>
	<path class="st0" d="M68.5,90c0.3,0.7,0.9,1.3,1.7,1.6c1.4,0.6,2.5,0.1,2-0.7S71,90.7,70,90.6C69.5,90.5,68.9,90.3,68.5,90z"/>
	<path class="st0" d="M68.2,87.8c0.2,0.6,0.7,1.1,1.3,1.3c1.1,0.6,2,0.1,1.6-0.6s-0.9-0.2-1.7-0.3C69,88.2,68.6,88.1,68.2,87.8z"/>
	<path class="st0" d="M67.9,85.6c0.2,0.6,0.6,1.1,1.2,1.4c1.1,0.6,2,0.2,1.6-0.5s-0.9-0.2-1.7-0.4C68.6,86,68.2,85.8,67.9,85.6z"/>
	<path class="st0" d="M155.7,62.9c-1,1.9-2.3,3.7-3.7,5.4c-0.9,1.1-1-0.3-1-0.3c-2.8-13-7.6-20.7-7.6-20.7c2.2,4.7,6.6,20,6.7,23.2
		c0.1,3.2-2.2,1.3-2.2,1.3c-0.5-0.4-0.9-1-1-1.6c0.2,0.1,0.5,0.2,0.7,0.2c1.5,0.5,0.4-0.5-1.3-2c-0.4-0.4-0.7-0.9-0.7-1.4
		c0.5,0.4,1,0.7,1.6,0.8c1.5,0.4-0.1-0.8-1.9-2.6c-0.2-0.2-0.3-0.4-0.4-0.6c0.7,0.4,1.4,0.6,2.1,0.6c1.5,0.2-0.3-0.8-2.2-2.3
		c-0.6-0.4-1.1-1-1.3-1.7c0.7,0.7,1.7,1.1,2.7,1.1c1.5,0.1-0.3-0.6-2.2-1.9c-0.6-0.3-1.1-0.8-1.3-1.4c1,0.5,2.1,0.8,3.2,0.8
		c1.8,0.1-0.3-0.7-2.6-2c-0.7-0.3-1.2-0.8-1.6-1.5c1,0.5,2.1,0.8,3.2,0.8c1.8,0.1-0.3-0.8-2.6-2s-2.9-2.3-2.9-2.3
		c1.4,0.7,2.9,1.2,4.4,1.4c1.8,0.1-0.3-0.8-2.6-2c-1.4-0.6-2.7-1.5-3.8-2.6c1.8,0.8,3.6,1.4,5.6,1.7c1.8,0.1,0-0.7-2.4-1.8
		c-1.6-0.8-3-1.9-4.2-3.2c0.6,0.3,3.8,1.7,5.3,1.8c1.6,0.1,0-0.3-2.1-1.3c-1.5-0.8-2.9-1.9-4-3.2c1.5,0.7,3.1,1.1,4.7,1.3
		c1.6,0.1,0-0.6-2.1-1.6c-1.4-0.7-2.7-1.7-3.7-2.9c1.4,0.8,3,1.3,4.6,1.6c1.6,0.2,0.1-0.6-2-1.7c-1.3-0.8-2.5-1.9-3.5-3.1
		c1.2,0.7,2.4,1.3,3.7,1.7c1.3,0.3-0.1-0.3-1.7-1.4c-1.1-0.8-2-1.7-2.7-2.8c1,0.7,2.2,1.2,3.4,1.6c1.2,0.2-0.1-0.3-1.5-1.3
		c-1-0.7-1.7-1.7-2-2.9c0,0,2.2,1.6,2.4,1.1s-0.4-2.1-1.6-3.1c0.9,0.3,1.7,0.8,2.2,1.6c-0.2-0.7-0.5-1.4-0.8-2
		c1.4,1.1,2.2,2.7,2.5,4.4c0,0,0.4-2.6,0-3.4c0.8,0.9,1.2,3,1.4,4.3c0.1,0.4,0.1,1.7,0.7,1.1c0.3-0.3,0-4.3,0-4.3
		c0.7,1.1,1.1,2.4,1.2,3.8c0.1,2.2-0.3,5.2,0.6,4s0.7-3.8,0.8-4.4c0.6,1.5,0.8,3.1,0.7,4.7c-0.4,2.3-0.6,4,0.3,2.8
		c0.8-1.2,0.9-3.3,1.1-4c0.3,1.7,0.3,3.3,0.1,5c-0.4,2-0.4,3,0.4,2.1c1-1.2,0.9-4.2,1.1-4.8c0.5,1.7,0.6,3.5,0.2,5.2
		c-0.6,2.7-0.4,3.3,0.2,2.5c1.1-1.4,1.2-4.2,1.4-4.9c0.3,1.5,0.4,3,0.3,4.5c-0.3,2.6-1.1,4.9-0.1,3.4c0.7-1.2,1.2-2.5,1.5-3.9
		c0.4,1.3,0.4,2.6,0.2,3.9c-0.7,2.5-1.2,5,0,3.6s1.2-3.8,1.5-4.5c0.2,1.1,0.3,2.2,0.2,3.4c-0.5,2.6-1.6,5.7-0.4,4.3
		c0.9-1.3,1.5-2.8,1.9-4.4c0.1,1.1,0,2.2-0.1,3.3c-0.4,2.3-1.7,5.6-0.7,4.3c1-1.4,1.7-3,2.2-4.7c0.2,0.9,0.2,1.7,0,2.6
		c-0.5,1.6-1,3.2-1.3,4.8C152.2,65.4,154,64.3,155.7,62.9z"/>
	<path class="st0" d="M143.7,81.7c0.4-1.6,0.9-3.2,1.5-4.8c0.2-0.9,0.3-1.8,0.2-2.6c-0.5,1.7-1.3,3.2-2.3,4.6
		c-1,1.2,0.4-2.1,0.9-4.4c0.2-1.1,0.3-2.2,0.3-3.3c-0.4,1.5-1.1,3-2,4.3c-1.2,1.3,0-1.8,0.6-4.4c0.2-1.1,0.2-2.3,0-3.4
		c-0.2,0.7-0.5,3.2-1.6,4.5s-0.5-1.1,0.2-3.7c0.3-1.3,0.3-2.6,0.1-3.9c-0.3,1.4-0.8,2.7-1.6,3.9c-1,1.4-0.1-0.9,0.3-3.5
		c0.2-1.5,0.2-3.1,0-4.6c-0.3,0.7-0.5,3.5-1.6,4.9c-0.6,0.8-0.8,0.1,0-2.6c0.4-1.7,0.4-3.6,0.1-5.3c-0.2,0.6-0.2,3.7-1.3,4.8
		c-0.7,0.8-0.7-0.2-0.2-2.2c0.3-1.7,0.4-3.4,0.2-5.1c-0.2,0.6-0.4,2.7-1.3,3.9s-0.6-0.5-0.1-2.9c0.2-1.6,0.1-3.2-0.4-4.8
		c-0.2,0.6-0.1,3.2-1,4.4s-0.4-1.9-0.4-4.1c0-1.4-0.3-2.7-0.9-3.9c0,0,0.1,4.1-0.2,4.4c-0.6,0.6-0.5-0.8-0.6-1.2
		c-0.1-1.4-0.4-3.6-1.1-4.5c0.4,0.9-0.2,3.5-0.2,3.5c-0.4-3.3-2.3-5-2.1-4.6c0.3,0.6,0.5,1.3,0.6,2c-0.5-0.8-1.2-1.4-2-1.8
		c1.1,1.1,1.6,2.8,1.4,3.3c-0.2,0.5-2.2-1.2-2.2-1.2c0.2,1.2,0.8,2.2,1.7,3.1c1.3,1.1,2.5,1.7,1.4,1.4c-1.1-0.4-2.1-1-3.1-1.8
		c0.6,1.1,1.4,2.1,2.4,3c1.4,1.2,2.7,1.9,1.5,1.5c-1.2-0.5-2.4-1.1-3.4-1.9c0.8,1.3,1.9,2.5,3.1,3.4c1.8,1.3,3.2,2.2,1.7,1.9
		c-1.5-0.4-2.9-1.1-4.2-1.9c0.9,1.2,2,2.3,3.3,3.2c1.9,1.1,3.3,1.9,1.9,1.8c-1.5-0.3-3-0.9-4.3-1.7c1,1.3,2.2,2.5,3.6,3.5
		c1.9,1.1,3.4,1.7,1.9,1.5c-1.5-0.2-4.4-1.8-4.9-2.2c1.1,1.4,2.3,2.6,3.8,3.5c2.2,1.3,3.8,2.2,2.1,2c-1.8-0.4-3.6-1.2-5.2-2.1
		c0.9,1.2,2.1,2.2,3.4,3c2.1,1.3,4,2.4,2.4,2.2c-1.5-0.3-2.9-0.9-4.1-1.7c0.6,1.1,1.5,1.9,2.6,2.5c2.1,1.3,4,2.4,2.4,2.2
		c-1.1-0.1-2.1-0.5-3-1.1c0.3,0.7,0.8,1.3,1.4,1.6c2.1,1.4,4,2.4,2.4,2.2c-1.1-0.1-2.1-0.4-3-1c0.2,0.6,0.6,1.1,1.1,1.5
		c1.8,1.4,3.4,2.3,2,2.1c-0.9-0.1-1.8-0.6-2.4-1.3c0.2,0.7,0.6,1.4,1.1,1.8c1.8,1.7,3.4,2.8,2,2.5c-0.7-0.1-1.4-0.4-2-0.8
		c0.1,0.2,0.2,0.5,0.4,0.7c0,0,3,3.7,3.1,1.3s-1.8-15.4-3.3-18.6c0,0,5.7,13,4.9,26.3c0,0,4.4-3.3,4.7-7.2c0,0-1,2.2-2.3,2.8
		c-1.3,0.6-1.1,0.1-0.1-1.1s2.3-4,2.1-6c0,0-2.4,4.5-2.6,2.4"/>
	<path class="st0" d="M150.3,100.9c-0.7-0.2-3.2-0.4-4.8-1.5c-1.5-1.1,1.8-0.3,4.6,0c1.2,0,2.4-0.2,3.5-0.5c-0.8-0.2-3.3,0-4.8-1.1
		c-1.5-1.1,1.1-0.8,3.8-0.3c1.4,0.1,2.7-0.1,4-0.6c-1.5-0.1-2.9-0.5-4.2-1.1c-1.6-0.9,0.9-0.2,3.6-0.2c1.6,0,3.2-0.3,4.6-0.8
		c-0.7-0.2-3.7,0-5.2-1c-0.9-0.6-0.2-0.8,2.6-0.5c1.9,0.2,3.7-0.1,5.4-0.8c-0.7-0.2-3.8,0.3-5.1-0.6c-0.9-0.7,0-0.8,2.2-0.6
		c1.8,0.1,3.5-0.1,5.2-0.6c-0.7-0.1-2.8,0-4.2-0.8c-1.4-0.8,0.4-0.8,2.9-0.6c1.7,0,3.3-0.4,4.8-1.2c-0.7-0.1-3.3,0.4-4.7-0.4
		s1.8-0.7,4.1-1.1c1.4-0.2,2.7-0.8,3.8-1.6c0,0-4.1,0.8-4.5,0.5c-0.7-0.6,0.7-0.8,1.1-0.9c1.4-0.4,3.6-1,4.4-1.9
		c-0.8,0.6-3.6,0.4-3.6,0.4c3.3-1,4.7-3.4,4.4-3.1c-0.6,0.4-1.3,0.8-2,1.1c0.7-0.7,1.2-1.5,1.4-2.5c-0.9,1.4-2.6,2.3-3.1,2.1
		s0.9-2.6,0.9-2.6c-1.2,0.5-2.1,1.3-2.8,2.4c-0.9,1.6-1.3,3-1.2,1.8c0.2-1.3,0.7-2.5,1.3-3.7c-1.1,0.9-2,1.9-2.6,3.1
		c-1,1.8-1.4,3.4-1.3,1.9c0.3-1.4,0.7-2.8,1.4-4.1c-1.2,1.2-2.2,2.5-2.9,4.1c-1,2.2-1.6,3.9-1.6,2.2c0.2-1.7,0.6-3.4,1.2-5
		c-1.1,1.2-2,2.7-2.6,4.2c-0.8,2.3-1.4,4-1.5,2.4c0.1-1.7,0.4-3.4,0.9-5.1c-1.2,1.3-2.2,2.9-2.9,4.6c-0.8,2.3-1.1,4.1-1.2,2.4
		s1.1-5.2,1.3-5.9c-1.2,1.4-2.2,3.1-2.9,4.8c-0.9,2.6-1.5,4.6-1.6,2.7c0.1-2.1,0.5-4.1,1.2-6.1c-1.1,1.3-1.9,2.7-2.5,4.2
		c-1,2.6-1.8,4.9-1.8,3c0.1-1.8,0.5-3.5,1.3-5.1c-1.1,0.9-1.9,2.2-2.4,3.6c-1,2.6-2,4.7-1.9,2.8c0.1-1.4,0.4-2.8,0.9-4.1
		c-1.2,1.9-2.1,3.9-2.7,6c-0.4,1.7-0.9,0.6-0.8-0.3c0.5-1.6,1-3.1,1.7-4.6c0,0-1.7,0.9-2.9,4s-2.1,3.1-1.8,2.1S142,93,142,93
		c-1.2,1.2-2.2,2.5-2.9,4.1c-0.8,2.1-0.6,2.8,0.7,2.1c1.3-0.7,14.3-6.8,20.5-10.9c0,0-8.9,5.9-12.2,7.4c-4.7,2.1-6.9,3.2-7.5,3.9
		c-0.6,0.7,2.2,1.6,6.1,1.5L150.3,100.9z"/>
	<path class="st0" d="M116.5,109.1c1-0.4,6.4,1.4,13,1.5c6.2-0.1,12.4-0.6,18.5-1.5c-16.4,1.3-26.4-0.2-26.7-1.1s2-2.3,2-2.3
		c3.1-2.5,5.5-2.5,5.5-2.5c-1.6,1.2-3.2,2.4-4.6,3.8c-0.7,0.9-0.6,2.3,0.8,0.7c2.1-2.3,6.6-4.7,6.6-4.7c-1.3,1-2.5,2.3-3.4,3.7
		c-1.2,1.9,1.1,0.3,3.8-1.9c1.3-1.2,3-2,4.8-2.4c-1.8,1.2-3.3,2.7-4.4,4.6c-1,1.9,1.1,0,3.8-2.1c1.6-1.3,3.4-2.3,5.3-3
		c-0.7,0.6-3.9,3.6-4.9,5.5c-1,2,0.8,0.3,3.4-1.9c1.8-1.5,3.9-2.6,6.1-3.4c-0.6,0.5-4,3.5-4.9,5.2s0.4,0.1,2.7-1.8
		c1.8-1.4,3.8-2.4,5.9-3.1c-1.6,1.4-2.9,2.9-4,4.7c-0.9,1.7,0.7,0.3,3-1.6c1.6-1.3,3.5-2.3,5.4-2.9c-1.6,1.3-3.1,2.8-4.3,4.4
		c-1,1.7,0.7,0.3,3.1-1.4c1.7-1.2,3.6-2.1,5.6-2.6c-1.5,1-2.8,2.1-3.9,3.4c-1,1.4,0.4,0,2.6-1.3c1.5-0.9,3.1-1.5,4.8-1.8
		c-1.3,0.9-2.5,1.9-3.6,3.1c-0.9,1.2,0.4,0,2.3-1.2c1.4-0.8,3-1.1,4.6-1c0,0-3,1.8-2.5,2.2s2.9,0.4,4.8-0.6
		c-0.8,0.9-1.9,1.5-3.1,1.8c0.9,0.1,1.9,0.1,2.8-0.1c0.6-0.2-2.4,1.6-6.7,0.9c0,0,3,1.6,4.3,1.4c-1.4,0.5-4.3,0-6.1-0.3
		c-0.5-0.1-2.1-0.6-1.7,0.3c0.2,0.5,5.4,1.8,5.4,1.8c-1.8,0.3-3.6,0.2-5.3-0.3c-2.8-0.8-6.4-2.6-5.3-1c1.1,1.6,4.4,2.4,5.1,2.8
		c-2.1,0-4.2-0.4-6.1-1.3c-2.7-1.4-4.8-2.4-3.6-0.9c1.1,1.5,3.7,2.5,4.4,3c-2.2-0.4-4.3-1.1-6.2-2.1c-2.3-1.3-3.5-1.7-2.9-0.5
		c1,1.7,4.8,2.8,5.4,3.3c-2.3-0.2-4.6-0.9-6.6-2c-3-1.8-3.9-1.9-3.2-0.9c1.2,1.8,4.6,3.1,5.4,3.7c-2-0.2-3.9-0.8-5.7-1.6
		c-3.1-1.4-5.5-3.4-4.2-1.6c1.2,1.3,2.6,2.5,4.1,3.3c-1.7-0.1-3.4-0.6-4.9-1.5c-2.8-1.9-5.6-3.4-4.5-1.6c1.1,1.9,4.1,3,4.9,3.6
		c-1.5-0.2-2.9-0.6-4.3-1.2c-2.9-1.7-6.3-4.2-5.2-2.3s3.8,3.4,4.5,4c0,0-5.3-1.4-7.6-3.6s-0.8,0.1,0,1.1c0.5,0.6,1,1.2,1.4,1.9
		C121.9,116,114.6,110.7,116.5,109.1L116.5,109.1z"/>
	<path class="st0" d="M110.9,103.4c-2.6,0.2-2-1.5-1.8-3.2s0.2-2,0.2-2s1.1,0.5,0.8,3c0.6-0.8,1.1-1.6,1.4-2.6c0,0,0.6,0.1,0.8,1.9
		c0,0,1.6-1.1,1.3-2.5c0.7,0.8,1.1,1.8,0.9,2.9c0,0,1.2-2.3,0.8-3.4c0,0,1.1,0.2,1.1,2.2c0,0,1.2-2.3,0.8-3.4c0,0,1,0.3,1,2.3
		c0,0,1-2.4,0.6-3.5c0,0,1.3,0.1,1.1,2.7l0,0c0,0,1.1-3,0.6-4.4c0,0,1.1,0.3,1.3,2.9c0,0,1-2.8,0.4-3.9c0,0,1,0.3,1.1,2.9
		c0,0,0.9-3.9,0.2-5.6c0,0,1.6-0.1,1.7,4.1c0,0,0.9-5.1,0.2-7.4c0,0,1.6-0.1,1.7,5.3c0,0,1.2-5.6,0.7-8.4c0,0,1.2,0.6,1.4,5.4
		c0,0,0.7-6.3,0.1-9.3c0,0,1.3,2.1,1.6,7.5c0,0,0.4-6.7-0.1-9.9c0,0,0.9,0.5,1.4,6.2c0,0-0.1-6.2,0.6-7.1c0,1.2,0.1,2.3,0.3,3.4
		c0.3-1,0.7-1.9,1.2-2.7c0.4,0.3-0.3,3.1-0.3,3.1c0.3-0.5,0.6-0.9,1-1.2c-0.1,1.4-0.4,2.8-0.7,4.2c0.5-0.3,0.9-0.7,1.2-1.2
		c0.3,1.2,0,2.5-0.8,3.4c-1.4,1.5-2.2,2.8-0.7,1.7s2.4-1.6,2.4-2.3c-0.2,1.5-0.9,3-2.1,4c-1.8,1.4-3.1,2.7-1.3,1.9s2.7-1.1,3.1-2
		c-0.6,1.5-1.8,2.7-3.3,3.4c-2.4,1-4.1,2-1.9,1.6c2.2-0.4,3.3-0.5,3.9-1.3c-0.7,1.4-1.9,2.4-3.3,3c-2.3,0.8-4,1.6-1.9,1.4
		c2.1-0.2,3.1-0.3,3.7-0.9c-0.9,1.2-2.3,2-3.9,2.3c-2.4,0.3-4.2,0.7-2.1,1c2.1,0.3,3.1,0.4,3.8-0.1c-0.9,1-2.2,1.6-3.6,1.7
		c-2.1,0-3.7,0.3-2,0.7s2.7,0.6,3.4,0.2c-1.1,0.8-2.5,1.2-3.8,1c-2.1-0.4-3.7-0.5-2.1,0.3c1.1,0.5,1.1,0.7,2.1,0.9
		c-1.1,0.5-2.4,0.7-3.6,0.6c-2-0.2-3.6,0.2-2,0.7c0.6,0.3,1.3,0.4,2,0.5c-1.1,0.5-2.4,0.6-3.6,0.5c-1.9-0.3-3.8-0.4-2.3,0.1
		c0.6,0.3,1.3,0.5,2,0.6c-1.2,0.3-2.5,0.3-3.7,0c-1.9-0.6-3.4-0.4-2,0.3c0.6,0.4,1.2,0.7,1.9,0.9c-1.2,0.1-2.5-0.1-3.6-0.6
		c0,0-2.1-1.9,0.3-2.5s11.5-2.4,16.9-9.3C127.5,95.1,120,102.7,110.9,103.4z"/>
	<path class="st0" d="M137,98.5c-0.5,1.2-1.5,2.1-2.7,2.5c-2.2,0.9-3.9-0.1-3-1.3c0.8-1,1.8-0.2,3.3-0.4
		C135.5,99.2,136.3,98.9,137,98.5z"/>
	<path class="st0" d="M138.7,95.2c-0.4,1-1.3,1.8-2.3,2.2c-1.9,0.9-3.5,0.1-2.7-1c0.7-0.9,1.6-0.3,2.9-0.5
		C137.3,95.8,138,95.6,138.7,95.2z"/>
	<path class="st0" d="M139.7,92.4c-0.4,0.9-1.2,1.6-2.1,1.9c-1.7,0.7-3.2,0.1-2.4-0.8c0.6-0.8,1.5-0.2,2.6-0.4
		C138.5,93,139.2,92.8,139.7,92.4z"/>
	<path class="st0" d="M139.9,90c-0.3,0.7-0.9,1.3-1.6,1.6c-1.4,0.6-2.6,0.1-2-0.7c0.5-0.8,1.2-0.2,2.1-0.4
		C138.9,90.5,139.5,90.3,139.9,90z"/>
	<path class="st0" d="M140.1,87.8c-0.2,0.6-0.7,1.1-1.3,1.3c-1.1,0.6-2,0.1-1.6-0.6c0.4-0.7,0.9-0.2,1.7-0.3
		C139.4,88.2,139.8,88.1,140.1,87.8z"/>
	<path class="st0" d="M140.5,85.6c-0.2,0.6-0.6,1.1-1.2,1.4c-1.1,0.6-2,0.2-1.6-0.5s0.9-0.2,1.7-0.4C139.8,86,140.2,85.8,140.5,85.6
		z"/>
	<path class="st0" d="M48.5,50.4c0.5-0.2,0.9-0.6,0.8-0.9s-0.6-0.4-1.1-0.2s-0.9,0.6-0.8,0.8S48,50.6,48.5,50.4z"/>
	<ellipse transform="matrix(0.9399 -0.3414 0.3414 0.9399 -14.7132 19.8385)" class="st0" cx="49" cy="51.7" rx="1.5" ry="0.8"/>
	<path class="st0" d="M50.3,55.3c1.2-0.4,2-1.3,1.7-1.9s-1.4-0.8-2.6-0.4s-2,1.3-1.7,1.9S49.1,55.7,50.3,55.3z"/>
	<path class="st0" d="M51.3,57.9c-0.5,0.2-0.9,0.6-0.8,0.9s0.6,0.3,1.1,0.2s0.9-0.6,0.8-0.8S51.8,57.7,51.3,57.9z"/>
	<path class="st0" d="M50.5,55.8c-0.8,0.3-1.3,0.9-1.2,1.3s0.9,0.5,1.7,0.2s1.3-0.9,1.1-1.3S51.3,55.5,50.5,55.8z"/>
	<path class="st0" d="M53.1,62.3c0.2,0,0.1-0.7-0.2-1.6s-0.7-1.4-0.9-1.4s-0.1,0.8,0.2,1.6S52.9,62.4,53.1,62.3z"/>
	<path class="st0" d="M147.8,80.1c0-1.1,0-2.2,0.2-3.3c0.2,1.6,0.6,3.1,1.4,4.6c1,1.4,0.3-1.8,0.1-4.4c0-1.1,0.2-2.2,0.5-3.3
		c0.1,0.7,0,3.2,1,4.6s0.8-1,0.4-3.6c-0.1-1.3,0.1-2.6,0.6-3.8c0.1,1.4,0.4,2.7,1,4c0.9,1.5,0.2-0.8,0.3-3.4c0-1.5,0.3-3,0.8-4.4
		c0.2,0.7-0.1,3.5,0.9,5c0.5,0.9,0.8,0.2,0.5-2.5c-0.1-1.8,0.2-3.5,0.8-5.2c0.1,0.6-0.3,3.6,0.6,4.9c0.6,0.9,0.8,0,0.6-2.1
		c-0.1-1.7,0.2-3.3,0.6-5c0.1,0.6,0,2.7,0.7,4.1c0.7,1.4,0.7-0.4,0.6-2.8c0-1.6,0.4-3.2,1.2-4.6c0.1,0.6-0.5,3.1,0.4,4.5
		c0.8,1.4,0.7-1.8,1.1-3.9c0.2-1.3,0.8-2.6,1.6-3.6c0,0-0.8,3.9-0.5,4.3c0.5,0.6,0.7-0.7,0.8-1c0.4-1.3,1-3.4,1.9-4.2
		c-0.5,0.8-0.4,3.4-0.4,3.4c1-3.2,3.3-4.4,2.9-4.1c-0.4,0.6-0.7,1.2-1,1.8c0.6-0.7,1.5-1.1,2.4-1.3c-1.4,0.9-2.2,2.4-2,2.9
		c0.2,0.5,2.5-0.8,2.5-0.8c-0.5,1.1-1.2,2-2.3,2.7c-1.5,0.8-2.9,1.2-1.7,1.1c1.2-0.2,2.4-0.6,3.5-1.2c-0.8,1-1.9,1.8-3,2.5
		c-1.7,0.9-3.1,1.3-1.8,1.2c1.3-0.2,2.6-0.7,3.9-1.3c-1.1,1.1-2.4,2.1-3.8,2.7c-2.1,0.9-3.7,1.5-2.1,1.5c1.6-0.1,3.2-0.5,4.7-1.1
		c-1.2,1.1-2.5,1.9-4,2.5c-2.2,0.8-3.8,1.3-2.2,1.4c1.6,0,3.2-0.3,4.8-0.8c-1.3,1.1-2.7,2.1-4.3,2.7c-2.2,0.8-3.8,1-2.2,1.1
		s4.9-1,5.5-1.2c-1.3,1.2-2.9,2.1-4.6,2.8c-2.5,0.8-4.3,1.4-2.5,1.5c1.9-0.1,3.9-0.5,5.7-1.1c-1.2,1-2.5,1.8-4,2.3
		c-2.5,0.9-4.6,1.6-2.8,1.7c1.6,0,3.1-0.3,4.6-0.9c0,0-0.6,1-3.1,1.9c-2.5,0.9-4.6,1.6-2.8,1.7c1.1,0.1,2.3-0.1,3.3-0.5
		c-0.4,0.6-1,1.1-1.7,1.3c-1.7,0.8-3.2,1.7-4.7,2.8c-1.5,1.2-1,0.1-0.7-0.7c0,0,4.7-10.2,8.6-16.1c0,0-5.9,8.5-7.3,11.6
		c-2,4.4-2.6,6.5-3.5,7C148.6,86.3,147.7,83.8,147.8,80.1"/>
	<path class="st0" d="M159.8,50.4c-0.5-0.2-0.9-0.6-0.8-0.9c0.1-0.3,0.6-0.4,1.1-0.2s0.9,0.6,0.8,0.8
		C160.9,50.6,160.4,50.6,159.8,50.4z"/>
	<path class="st0" d="M159.1,52.5c-0.8-0.3-1.3-0.9-1.1-1.3c0.2-0.4,0.9-0.5,1.7-0.2c0.8,0.3,1.3,0.9,1.1,1.3S159.9,52.8,159.1,52.5
		z"/>
	<path class="st0" d="M158.1,55.3c-1.2-0.4-2-1.3-1.7-1.9s1.4-0.8,2.5-0.4c1.2,0.4,2,1.3,1.7,1.9S159.2,55.7,158.1,55.3z"/>
	<ellipse transform="matrix(0.3391 -0.9408 0.9408 0.3391 48.8036 186.2268)" class="st0" cx="156.9" cy="58.4" rx="0.5" ry="1"/>
	<path class="st0" d="M157.9,55.8c0.8,0.3,1.3,0.9,1.1,1.3s-0.9,0.5-1.7,0.2s-1.3-0.9-1.1-1.3S157.1,55.5,157.9,55.8z"/>
	<path class="st0" d="M155.3,62.3c-0.2,0-0.1-0.7,0.2-1.6c0.3-0.8,0.7-1.4,0.9-1.4c0.2,0.1,0.1,0.8-0.2,1.6
		C155.9,61.8,155.5,62.4,155.3,62.3z"/>
	<path class="st0" d="M87.9,57.9c-2.9,0-5.3,2.4-5.3,5.3c0,2.9,2.4,5.3,5.3,5.3c2.9,0,5.3-2.4,5.3-5.3
		C93.2,60.3,90.8,57.9,87.9,57.9C87.9,57.9,87.9,57.9,87.9,57.9z M92.3,62.8h-1.6l-0.3-1.6c0.4-0.1,0.9-0.2,1.3-0.4
		C92,61.4,92.2,62.1,92.3,62.8L92.3,62.8z M91,60.1c-0.3,0.1-0.6,0.2-0.9,0.3c-0.2-0.5-0.4-0.9-0.7-1.3C89.9,59.2,90.5,59.6,91,60.1
		L91,60.1z M86,62.8c0-0.5,0.1-0.9,0.3-1.4c1,0.1,2.1,0.1,3.1,0c0.1,0.5,0.2,0.9,0.3,1.4H86z M89.7,63.7c0,0.5-0.1,0.9-0.3,1.4
		c-1-0.1-2.1-0.1-3.1,0c-0.1-0.5-0.2-0.9-0.3-1.4H89.7z M87.9,58.8c0.6,0.5,1,1,1.2,1.7c-0.4,0.1-0.8,0.1-1.2,0.1
		c-0.4,0-0.8,0-1.2-0.1C86.9,59.9,87.3,59.3,87.9,58.8z M86.4,59c-0.3,0.4-0.5,0.8-0.7,1.3c-0.3-0.1-0.6-0.2-0.9-0.3
		C85.2,59.6,85.8,59.2,86.4,59L86.4,59z M84.1,60.9c0.4,0.1,0.8,0.3,1.3,0.4c-0.1,0.5-0.2,1-0.3,1.6h-1.6
		C83.6,62.1,83.8,61.4,84.1,60.9L84.1,60.9z M83.5,63.7h1.7c0,0.5,0.1,1,0.3,1.5c-0.4,0.1-0.9,0.2-1.3,0.4
		C83.8,65,83.5,64.3,83.5,63.7L83.5,63.7z M84.8,66.4c0.3-0.1,0.6-0.2,0.9-0.3c0.2,0.5,0.4,0.9,0.7,1.3
		C85.8,67.2,85.2,66.8,84.8,66.4L84.8,66.4z M87.9,67.6c-0.6-0.5-1-1-1.2-1.7c0.4-0.1,0.8-0.1,1.2-0.1c0.4,0,0.8,0,1.2,0.1
		C88.8,66.6,88.4,67.2,87.9,67.6L87.9,67.6z M89.3,67.4c0.3-0.4,0.5-0.8,0.7-1.3c0.3,0.1,0.6,0.2,0.9,0.3
		C90.5,66.8,89.9,67.2,89.3,67.4L89.3,67.4z M91.6,65.6c-0.4-0.1-0.8-0.3-1.3-0.4c0.1-0.5,0.2-1,0.3-1.5h1.6
		C92.2,64.3,92,65,91.6,65.6L91.6,65.6z"/>
	<path class="st0" d="M106.2,51c-0.2,0-0.5-0.1-0.5-0.3l-0.2-1.2c0-0.2,0.1-0.4,0.3-0.5l1.2-0.3c0.2,0,0.4,0.1,0.5,0.3l0.2,1.2
		c0,0.2-0.1,0.5-0.3,0.5L106.2,51z"/>
	<path class="st0" d="M107.5,55.1L107.5,55.1z"/>
	<polygon class="st0" points="99.4,61 99.6,60.1 100.1,60.4 	"/>
	<path class="st0" d="M121.7,61.9c0.2-1.9-0.7-3.8-2.4-4.8c-0.5-0.3-1-0.6-1.6-0.7c0.4-1.3-1.1-1.6-1.1-1.6c0.2,1.4-0.8,1.5-1.4,1.7
		c-2.8,1-4.2,4-3.2,6.8c0,0.1,0.1,0.2,0.1,0.3c1.2,2.9,2.5,6,2.3,7.3c-0.2,1-0.9,0.7-0.8,0.1s0.3-1.8-0.4-2.3c0,0-0.1,1.4-1.1,0.8
		c-0.7-0.4,0.1-1.5,0.1-3.2c0.1-0.7-0.5-1.3-1.2-1.4c-0.1,0-0.3,0-0.4,0c1.1,1.3-0.1,1.5-0.2,4.1c-0.1,2.3,1.8,2.1,2.3,4.4
		s-1.4,1.8-1.4,1.8c-0.1-0.6-0.3-1.1-0.6-1.6c-0.6-0.8-3-1.6-5-3.1s-1.6-2.1-1.4-3.2c0.1-1.1-1.3-1.7-1.8-2
		c-0.5-0.3-0.3-0.4-0.3-0.4c1,0.5,2.8,0.4,2.9-0.9c0,0-1.9-0.1-1-1.3c0.1-0.2,1.2,0.2,1.4-0.7c0,0-0.7-0.1-0.5-0.7
		c0.1-0.4,2,0.3,2.1-1.3c0,0-0.8,0.1-1-0.4s-0.2-0.8,0.2-1.4c0.5-0.6,0.9-1.3,1.1-2c0.1-0.4,0.1-0.7,0-1.1l1.2-1.8
		c0.3-0.4,0.1-1-0.3-1.3l-4.4-2.9c-0.4-0.3-1-0.1-1.3,0.3l-1.2,1.8l0,0c-0.4,0.1-0.7,0.2-1,0.4c-0.7,0.5-0.9,2-1.5,2.5
		c-1.6,1.1-1.8,0.2-1.8,0.2c-0.4,0.2-0.2,1.1-0.6,1.3c-0.4,0.3-1,0.1-1.3-0.3c0,0,0-0.1-0.1-0.1c-0.7,0.4,0,2,0.3,2.2
		c-0.8,0.2-1.4,0.7-1.6,1.5c0,0,0.9-0.2,1.1,0.4s-0.6,1-0.6,1c0.2,0,0.5,0.1,0.7,0.2c0.3,0.2,0,0.6,0,0.6c-1.1-0.8-2.1-1.7-3-2.8
		c-1.4-1.6-2.2-1.4-3.3-1.6c-0.7-0.1-1.4-0.1-2,0.2c-0.5,0.1-0.9-0.2-1.4,0.1s0.1,1.5,0.1,1.5l1.8-0.4l3.4,1l1,1.1l1.1,3.4l-0.4,1.6
		L91,67l-3.2,1.2l-2.1-0.3l-1.3-0.7c-0.8,2.9,0.9,3.2,0.9,3.2c0.1-0.5,0.4-0.9,0.9-1c0,0.6,0.5,1.2,1.1,1.4c0-0.5,0.4-0.8,0.8-0.9
		c0,0.6,0.4,1.1,1,1.2c0-0.4,0.3-0.7,0.7-0.8c0,0.5,0.4,1,0.9,1.1c0-0.4,0.3-0.7,0.7-0.7c0,0.5,0.4,0.8,0.9,0.9
		c0-0.3,0.3-0.6,0.6-0.6c0.1,0.5,0.5,0.8,1,0.8c-0.2-0.8,0.7-1.3,1.4-1.2s0.3,0.6-0.1,0.8l0.2,0.4c1.2,2.3,3.1,2.4,5.4,2.9
		s5,1.8,5,2.3l0.2-0.9c0.4,0.6,1.1,5.1,3.1,6.3c0.8,0.4,1.7,0.1,1.8,0.8s-0.5,0.8-1.9,1.2s-1.9,1.1-2,1.9c0.2,0.9,0.6,1.7,1.1,2.4
		l5,0.2l-0.7-0.2c-0.1-0.3-0.3-0.7-0.4-1.2c-0.3-0.9,1.2-1.4,1.6-1.7s0.1-1.2,0.4-1.9s1-1.6,0.4-2.4c-0.4-0.5-0.7-1.1-1-1.7
		c-0.2-0.6,0.1-1.1-0.4-1.2s-0.8,0-0.7-0.5s1.2-0.8,1.7-1.6c0.4-0.9,0.9-1.8,1.6-2.5c0.6-0.4,0.9-0.5,0.7-0.9s-0.7-0.3-0.7-0.3
		c0.7-3-0.3-3.7-2-7.9c-1.7-4.2,0.5-5.8,2-6.4c1.1-0.3,2.2,0.2,2.6,1.3c0.1-0.1,0.2-0.2,0.3-0.3c0.1-0.1,0.1-0.3,0.1-0.4
		c0.8,0.7,1.3,1.7,1.3,2.8c0.1,1.4-1,1.5-1.4,1.2c-0.6-0.4-0.4-1.3-0.4-1.3c-1.6,0-1.5,1.9-1.5,1.9c-0.5,0.2-1-0.6-1-0.6
		c-0.5,2.1,1.8,3.1,1.8,3.1c-0.5,0.8-0.7,1.7-0.8,2.6c-0.1,2.3,2,3.6,2.9,3.2c0,0-1.1-1.4-0.9-2.1c0.2-0.6,0.6-1.1,1-1.5
		c0.2-0.2,0.3-0.5,0.4-0.8c2.4,1.3,3.6-0.7,3.6-0.7C121.1,66.5,121.5,64.2,121.7,61.9z M91.8,66.7c0.6-0.6,1-1.4,1.2-2.2
		c0.8,0.5,1.2,1.4,1.1,2.3C93.3,66.5,92.5,66.5,91.8,66.7L91.8,66.7z M103,57.7l0.1-0.8c0.7,0.1,1.3,0.6,1.5,1.3
		C104.7,58.1,103.5,57.5,103,57.7L103,57.7z M105.9,52.4c0.6-0.3,1.2-0.1,1.6,0.4s0.1,1.2-0.4,1.6c0.1-0.3,0.1-0.5,0-0.8
		c-0.2-0.6-0.9-0.8-1.4-0.6c0,0,0,0,0,0c-0.1,0.1-0.3,0.2-0.4,0.2C105.3,52.9,105.6,52.6,105.9,52.4L105.9,52.4z M103.4,50.4
		c0.6,0,1.1,0.5,1.2,1.1c0,0.4-0.2,0.7-0.5,1c0.1-0.1,0.1-0.3,0.1-0.4c0-0.6-0.5-1.1-1.1-1.1c-0.3,0-0.6,0.1-0.8,0.3
		C102.4,50.8,102.8,50.4,103.4,50.4L103.4,50.4z M104.7,53.8c-0.2,0.2-0.5,0.3-0.8,0.1c-0.2-0.2-0.3-0.5-0.1-0.7
		c0.2-0.2,0.5-0.3,0.7-0.2C104.7,53.2,104.8,53.5,104.7,53.8C104.7,53.8,104.7,53.8,104.7,53.8L104.7,53.8z M100.7,52.5l5.8,3.8
		l-0.1,0.2l-5.8-3.8L100.7,52.5z M100.8,60.7l-0.7,1.1c-0.3,0.2-0.6,0.2-0.9,0h-0.4l-0.2-0.3c-0.3-0.2-0.4-0.5-0.3-0.8l0.7-1.1
		c-0.6-0.2-0.9-0.7-0.8-1.3c0,0,0-0.1,0-0.1c0.1,0.5,0.5,0.9,1,1c0.4,0.1,0.8,0,1.1-0.2l-0.9-0.6l1.6-2c0-0.5-1-1.3-1-1.3
		c0.7,0,1.4,0.3,1.7,0.9l-1.8,2.3l1.7,1.1v0.4l-0.8-0.5c-0.1,0.4,0,0.8,0.2,1.1c0.3,0.4,0.8,0.7,1.3,0.5c0,0-0.1,0.1-0.1,0.1
		C101.8,61.2,101.2,61.1,100.8,60.7L100.8,60.7z"/>
	<path class="st0" d="M113.1,88.6c0.9-0.9,3-0.8,4.9,0.2c2.1,1.1,3.1,2.9,2.3,4.1s-3,1.1-5.1,0l-0.1-0.1v0.1c-0.8,1.1-3,1.1-5.1,0
		l-0.1-0.1v0.1c-0.8,1.1-3,1.1-5.1,0l-0.1-0.1c0,0,0,0,0,0.1c-0.8,1.1-3,1.1-5.1,0l-0.1-0.1v0.1c-0.8,1.1-3,1.1-5.1,0h-0.1V93
		c-0.8,1.1-3,1.1-5.1,0s-3.1-2.9-2.3-4.1s3-1.1,5.1,0h0.1v-0.1c0.6-0.7,1.6-1,2.6-0.8c-0.4-0.9-1.1-2.4-0.8-3.1
		c0.4-1,2.3-1.4,3.4-1.1s1.6,0.9,2.1,1.1c0.6,0.2,1.2,0,1.5-0.6c0.2-0.4,0.4-0.7,0.5-1.1c0,0-3.6-0.5-3.1-3.4c0.3-2.2,3.1-3.8,6.2-3
		c1.2,0.2,2,1.4,1.8,2.6c0,0-1,0.1-1.2,0.6c-0.3,0.9,0.9,1.3,0.9,1.3c-0.9,0.6-0.4,0.7-1.1,1.2c-0.4,0.3-0.6,0.8-0.5,1.2
		c0.1,0.3-0.3,0.7-0.8,1.4c-0.4,0.5-0.6,1.1-0.6,1.7c-0.1,0.6-0.2,0.6-1.1,0.8s-0.8,0.5-1,0.6c0,0-0.1,0-0.1,0.1
		c0.6,0.2,1.1,0.4,1.7,0.7l0.1,0.1c0,0,0,0,0-0.1c0.8-1.1,3-1.1,5.1,0l0.1,0.1v-0.1c0.1-0.2,0.3-0.3,0.5-0.4 M112.1,90.3
		c-0.9-0.6-1.9-0.8-2.9-0.6c0.3,0.8,1,1.4,1.7,1.7c0.9,0.6,1.9,0.8,2.9,0.5C113.4,91.2,112.8,90.6,112.1,90.3L112.1,90.3z
		 M106.9,90.3c-0.9-0.6-1.9-0.8-2.9-0.6c0.3,0.8,0.9,1.4,1.7,1.7c0.8,0.5,1.8,0.7,2.8,0.5C108.2,91.3,107.6,90.6,106.9,90.3
		L106.9,90.3z M117.3,90.3c-0.9-0.6-1.9-0.8-2.9-0.6c0.3,0.8,1,1.4,1.7,1.7C117,92,118,92.2,119,92C118.7,91.2,118,90.6,117.3,90.3
		L117.3,90.3z M101.7,90.3c-0.9-0.6-1.9-0.8-2.9-0.6c0.3,0.8,1,1.4,1.7,1.7c0.9,0.6,1.9,0.8,2.9,0.5C103,91.2,102.4,90.6,101.7,90.3
		L101.7,90.3z M96.4,90.3c-0.9-0.6-1.9-0.8-2.9-0.6c0.3,0.8,1,1.4,1.7,1.7c0.9,0.6,1.9,0.8,2.9,0.5C97.8,91.2,97.2,90.6,96.4,90.3
		L96.4,90.3z M91.2,90.3c-0.9-0.6-1.9-0.8-2.9-0.5c0.3,0.8,1,1.4,1.7,1.7C90.9,92,92,92.2,93,92C92.6,91.2,92,90.6,91.2,90.3
		L91.2,90.3z"/>
	<path class="st1" d="M17.2,156v4.2H9.5v-14h7.7v3.8h9.3v-3.9c0-3.8-3.1-6.8-6.8-6.8H6.8c-3.8,0-6.8,3.1-6.8,6.8v14.1
		c0,3.8,3.1,6.8,6.8,6.8h12.9c3.8,0,6.8-3.1,6.8-6.8V156L17.2,156z"/>
	<path class="st1" d="M53.4,139.3v20.9h-7.7v-20.9h-9.3v20.9c0,3.8,3.1,6.8,6.8,6.8h12.6c3.8,0,6.8-3.1,6.8-6.8v-20.9H53.4z"/>
	<polygon class="st1" points="92.2,139.3 92.2,155.8 83.7,139.3 72.3,139.3 72.3,167 80.5,167 80.5,150.9 88.8,167 100.3,167 
		100.3,139.3 	"/>
	<path class="st1" d="M130.8,167h9.2l-10.2-27.7h-13.4L106.2,167h9.3l2-5.5h11.3L130.8,167z M119.8,155.1l3.3-9l3.3,9H119.8z"/>
	<path class="st1" d="M166.4,153.9c3.8,0,6.3-3.3,6.3-7.3c0.1-3.9-2.9-7.2-6.8-7.3h-20V167h9.3v-9h7.9v9h9.7v-6.2
		C172.8,157,170.2,153.9,166.4,153.9z M155.2,151.7V146h7.9v5.7L155.2,151.7z"/>
	<path class="st1" d="M201.6,139.3h-19.4V167h19.4c3.8,0,6.8-3.1,6.8-6.8v-14.1C208.4,142.4,205.4,139.3,201.6,139.3z M199.5,160.2
		h-8.3v-14h8.3V160.2z"/>
	<g>
		<path class="st2" d="M268.3,166.8l-1-2.7h-3.7l-1,2.7h-0.9l3.2-8.6h1l3.2,8.6H268.3z M265.5,159c-0.1,0.4-1.5,4.2-1.6,4.4h3.2
			C267,163.2,265.6,159.4,265.5,159z"/>
		<path class="st2" d="M280.1,166.8l-4-6.8c-0.1-0.2-0.3-0.7-0.4-0.9h0c0,0.3,0.1,0.8,0.1,1.2v6.5H275v-8.6h1l4,6.8
			c0.2,0.3,0.3,0.7,0.4,0.9h0c0-0.2-0.1-0.8-0.1-1.1v-6.6h0.8v8.6H280.1z"/>
		<path class="st2" d="M293.2,166.8l-4-6.8c-0.1-0.2-0.3-0.7-0.4-0.9h0c0,0.3,0.1,0.8,0.1,1.2v6.5h-0.8v-8.6h1l4,6.8
			c0.2,0.3,0.3,0.7,0.4,0.9h0c0-0.2-0.1-0.8-0.1-1.1v-6.6h0.8v8.6H293.2z"/>
		<path class="st2" d="M301.2,166.8v-8.6h0.8v8.6H301.2z"/>
		<path class="st2" d="M311.9,166.8h-1l-3-8.6h0.9l2.4,6.8c0.1,0.3,0.2,0.7,0.2,0.9h0c0.1-0.2,0.2-0.6,0.3-0.9l2.4-6.8h0.9
			L311.9,166.8z"/>
		<path class="st2" d="M320.9,166.8v-8.6h5.5v0.7h-4.7v3.1h4.1v0.7h-4.1v3.4h4.9v0.7H320.9z"/>
		<path class="st2" d="M338.3,166.8l-2.1-3.8h-2.5v3.8h-0.8v-8.6h3.1c1.6,0,2.7,0.8,2.7,2.3c0,1.5-0.8,2.2-1.7,2.4l2.3,3.9H338.3z
			 M335.8,158.9h-2.2v3.5h2.2c1.2,0,2-0.6,2-1.8C337.9,159.5,336.9,158.9,335.8,158.9z"/>
		<path class="st2" d="M348,167c-1.6,0-2.7-0.9-3.1-2.2l0.6-0.4c0.4,1.1,1.3,1.9,2.5,1.9c1.3,0,2.1-0.7,2.1-1.6
			c0-0.9-0.6-1.4-1.7-1.8l-1.2-0.4c-1.4-0.5-1.9-1.1-1.9-2.2c0-1.2,1-2.2,2.6-2.2c1.4,0,2.4,0.5,2.8,1.7l-0.7,0.5
			c-0.4-1-1.1-1.5-2.1-1.5c-1.1,0-1.9,0.7-1.9,1.5c0,0.7,0.4,1.1,1.5,1.5l1.2,0.4c1.5,0.5,2.2,1.2,2.2,2.5
			C350.9,166.1,349.9,167,348,167z"/>
		<path class="st2" d="M363,166.8l-1-2.7h-3.7l-1,2.7h-0.9l3.2-8.6h1l3.2,8.6H363z M360.1,159c-0.1,0.4-1.5,4.2-1.6,4.4h3.2
			C361.7,163.2,360.2,159.4,360.1,159z"/>
		<path class="st2" d="M375,166.8l-2.1-3.8h-2.5v3.8h-0.8v-8.6h3.1c1.6,0,2.7,0.8,2.7,2.3c0,1.5-0.8,2.2-1.7,2.4l2.3,3.9H375z
			 M372.6,158.9h-2.2v3.5h2.2c1.2,0,2-0.6,2-1.8C374.6,159.5,373.7,158.9,372.6,158.9z"/>
		<path class="st2" d="M384.8,163.6v3.3H384v-3.3l-2.9-5.4h0.9l2.5,4.5l2.5-4.5h0.8L384.8,163.6z"/>
		<path class="st2" d="M320.4,0c-11.5,0-14.1,6.1-14.1,6.1v5.3c0,0,2.6-6.1,14.1-6.1c11.5,0,14.1,6.1,14.1,6.1V6.1
			C334.4,6.1,331.9,0,320.4,0z"/>
		<path class="st3" d="M356,65.7c0-10.2-2.9-14.9-2.9-14.9s-13.4-21-27.1-35.4c-3.7-3.9-5.3-3.9-5.7-3.9c-0.5,0-2,0-5.7,3.9
			c-13.6,14.4-27.1,35.4-27.1,35.4s-2.9,4.7-2.9,14.9c0,7.7,2.3,15.4,4.7,21.4c0,0-3.8-10,1.9-24.6c5.5-14.1,29.1-37.5,29.1-37.5
			s23.5,23.4,29.1,37.5c5.7,14.5,1.9,24.6,1.9,24.6C353.8,81.1,356,73.5,356,65.7z"/>
		<path class="st3" d="M352.2,49.4l0.9,1.4v-4.6h-3C351,47.5,351.7,48.6,352.2,49.4z"/>
		<path class="st3" d="M287.6,46.2v4.6l0.9-1.4c0.5-0.8,1.2-1.8,2.1-3.1H287.6z"/>
		<path class="st2" d="M350.1,46.2h3v-3.1H348C348.8,44.3,349.5,45.3,350.1,46.2z"/>
		<path class="st2" d="M292.7,43.1h-5.2v3.1h3C291.2,45.3,291.9,44.3,292.7,43.1z"/>
		<path class="st3" d="M294.9,40h-7.4v3.1h5.2C293.4,42.1,294.1,41.1,294.9,40z"/>
		<path class="st3" d="M348,43.1h5.2V40h-7.4C346.6,41.1,347.3,42.1,348,43.1z"/>
		<path class="st2" d="M345.8,40h7.4v-3.1h-9.6C344.3,37.9,345.1,39,345.8,40z"/>
		<path class="st2" d="M297.2,36.8h-9.6V40h7.4C295.6,39,296.4,37.9,297.2,36.8z"/>
		<path class="st3" d="M299.5,33.7h-11.9v3.1h9.6C297.9,35.8,298.7,34.8,299.5,33.7z"/>
		<path class="st3" d="M343.5,36.8h9.6v-3.1h-11.9C342,34.8,342.8,35.8,343.5,36.8z"/>
		<path class="st2" d="M301.9,30.5h-18.4v3.1h4.1h11.9C300.3,32.7,301.1,31.6,301.9,30.5z"/>
		<path class="st2" d="M341.2,33.7h11.9h4.1v-3.1h-18.4C339.7,31.6,340.5,32.7,341.2,33.7z"/>
		<path class="st3" d="M304.3,27.4h-20.8v3.1h18.4C302.7,29.5,303.5,28.5,304.3,27.4z"/>
		<path class="st3" d="M338.8,30.5h18.4v-3.1h-20.8C337.2,28.5,338,29.5,338.8,30.5z"/>
		<path class="st2" d="M336.4,27.4h20.8v-3.1h-23.4C334.7,25.3,335.6,26.4,336.4,27.4z"/>
		<path class="st2" d="M306.9,24.3h-23.4v3.1h20.8C305.2,26.4,306,25.3,306.9,24.3z"/>
		<path class="st3" d="M309.5,21.1h-26v3.1h23.4C307.7,23.2,308.6,22.2,309.5,21.1z"/>
		<path class="st3" d="M331.2,21.1c0.9,1,1.8,2.1,2.6,3.1h23.4v-3.1H331.2z"/>
		<polygon class="st4" points="320.4,139.1 297.5,140.9 297.9,148.5 342.8,148.5 343.3,140.9 		"/>
		<path class="st2" d="M349.4,62.6c-5.5-14.1-29.1-37.5-29.1-37.5s-23.5,23.4-29.1,37.5c-5.7,14.5-1.9,24.6-1.9,24.6
			c4.8,12,7.2,40.1,8,53.7l0,0l22.9-1.7l22.9,1.7l0,0c0.9-13.6,3.2-41.7,8-53.7C351.3,87.2,355.1,77.1,349.4,62.6z"/>
		<path class="st5" d="M314.6,15.4c3.7-3.9,5.3-3.9,5.7-3.9c0.5,0,2,0,5.7,3.9c1.7,1.8,3.4,3.7,5.1,5.7h3.2v-9.7
			c0,0-2.6-6.1-14.1-6.1c-11.5,0-14.1,6.1-14.1,6.1v9.7h3.2C311.2,19.1,312.9,17.2,314.6,15.4z"/>
		<path class="st2" d="M356.4,88.5c0-13.2,6.4-21.3,16.3-21.3c9.5,0,15.4,7.5,15.4,20.7s-5.9,21.3-15.9,21.3
			C363,109.1,356.4,101.6,356.4,88.5z M382.1,88.4c0.1-11.4-3.3-19.4-9.9-19.4c-6.6-0.1-9.8,7.7-9.9,18.8c-0.1,11.5,3,19.5,9.9,19.5
			C379.1,107.3,382,99.5,382.1,88.4z"/>
		<path class="st2" d="M277.6,67.1v41.4h-5.2v-36c-3.9,0.2-6.3-0.1-9.5-0.7v-0.2c3.9-0.4,9.7-1,13.2-4.5H277.6z"/>
		<path class="st3" d="M339.1,108.5c0,10.8-7.5,18.8-18.8,18.8c-10.5,0-19.1-6.3-19.1-18c0-11.9,7-17.1,15.4-20.3
			c-7-4-11.8-10.4-11.8-18.9c0-10.4,7-16.2,16-16.2c9,0,15,5.3,15,14.6c0,9.7-6.5,14.7-13.4,17.9l0,0
			C335.1,93.7,339.1,99.9,339.1,108.5z M334.8,109.6c0-7.1-4.1-12.4-11.9-16.8l-6-3.7c-7.5,3.3-11.7,9.4-11.7,19.3
			c0,11.3,6.3,16.5,15.6,16.5C327.4,124.9,334.8,121.1,334.8,109.6z M322.3,86.3c5.9-3.4,9.9-9.8,9.9-17.5c0-8.9-5.2-12.6-11.4-12.6
			c-7,0-11.8,3.5-11.8,13.3C309.1,80.1,322.3,86.3,322.3,86.3z"/>
	</g>
</g>
</svg>
