<?xml version="1.0" encoding="UTF-8"?>
<svg width="184px" height="79px" viewBox="0 0 184 79" version="1.1" xmlns="http://www.w3.org/2000/svg" xmlns:xlink="http://www.w3.org/1999/xlink">
    <!-- Generator: Sketch 48.2 (47327) - http://www.bohemiancoding.com/sketch -->
    <title>graphic/logo</title>
    <desc>Created with Sketch.</desc>
    <defs>
        <polygon id="path-1" points="0.2177403 0.521609272 73.3062291 0.521609272 73.3062291 53.4427675 0.2177403 53.4427675 0.2177403 0.521609272"></polygon>
    </defs>
    <g id="structure/header/1440/default-light-blue" stroke="none" strokeWidth="1" fill="none" fill-rule="evenodd" transform="translate(-79.000000, -32.000000)">
        <g id="HEADER">
            <g id="LOGO" transform="translate(0.000000, 32.000000)">
                <g id="logo/original" transform="translate(79.000000, 0.000000)">
                    <g id="Page-1">
                        <g id="Group-3" transform="translate(26.583569, 0.002093)">
                            <mask id="mask-2" fill="white">
                                <use xlink:href="#path-1"></use>
                            </mask>
                            <g id="Clip-2"></g>
                            <path d="M36.7650244,43.882198 L36.7577269,43.882198 C30.8858856,43.882198 25.4961972,44.0103768 21.2636759,44.2201715 C21.3627127,44.2044762 23.5800952,43.8246483 24.8060669,43.6399662 C25.9402992,43.466794 28.1644578,43.1963106 28.5824975,43.1460854 C28.9520612,38.9381583 32.4715173,35.6384695 36.7613756,35.6384695 L36.7629394,35.6384695 C41.0527977,35.6384695 44.5706901,38.9381583 44.9418176,43.1460854 C45.3577722,43.1963106 47.5845371,43.466794 48.7182482,43.6399662 C49.9442198,43.8246483 52.1636873,44.2044762 52.2590754,44.2201715 C48.0286391,44.0103768 42.6384295,43.882198 36.7650244,43.882198 M73.2022368,45.2717609 C63.2182822,44.0072377 50.035438,43.1178338 48.7839252,40.7551583 C48.7536929,40.698655 48.7375343,40.6133768 48.7375343,40.5485026 C48.7375343,38.4814232 57.1655683,32.6364695 66.0418742,26.8867344 C66.1294436,26.8061649 66.0324918,26.7072841 65.9355399,26.7548934 C56.3477326,31.5430258 47.2191433,36.3049993 45.7810244,35.3114828 C45.5464635,35.1503437 45.4807864,34.7998139 45.4562878,34.3383702 C45.3317099,32.2435623 48.9257042,23.5216483 53.9672,14.6108669 C54.0266221,14.5240192 53.9129904,14.4219993 53.8327184,14.5104166 C47.4667354,23.9930325 42.1177042,32.2336219 40.0499195,31.8726285 C38.1937609,31.5393636 37.2091263,15.2229861 36.8432113,0.61374106 C36.8432113,0.553052318 36.8041178,0.523231126 36.7650244,0.521138411 L36.7598119,0.521138411 C36.7186334,0.523231126 36.6795399,0.553052318 36.6795399,0.61374106 C36.3151887,15.2229861 35.3289904,31.5393636 33.4749167,31.8726285 C31.405047,32.2336219 26.0560159,23.9930325 19.6915966,14.5104166 C19.6097609,14.4219993 19.4982142,14.5240192 19.557115,14.6108669 C24.5986108,23.5216483 28.1910414,32.2435623 28.0680272,34.3383702 C28.0419649,34.7998139 27.9783728,35.1503437 27.7417269,35.3114828 C26.3036079,36.3049993 17.1760612,31.5430258 7.58721133,26.7548934 C7.49182323,26.7072841 7.39539263,26.8061649 7.48296204,26.8867344 C16.3587467,32.6364695 24.785217,38.4814232 24.785217,40.5485026 C24.785217,40.6133768 24.7706221,40.698655 24.7403898,40.7551583 C23.4888771,43.1178338 10.3060329,44.0072377 0.322599433,45.2717609 C0.147460623,45.2916417 0.224083853,45.3805821 0.318950708,45.3805821 C6.68649745,45.4370854 10.3143728,45.4313305 19.4268034,45.6835026 C21.7004805,45.6835026 21.614996,45.6500192 25.0964011,45.8524894 C28.2249224,46.0361252 30.157183,46.3249199 31.8001518,47.2028139 C34.2385428,48.5112841 35.4123898,50.5276152 35.9576136,51.6236748 C36.3808657,52.4707013 36.5372397,52.9426086 36.6665088,53.3381318 C36.6884011,53.4014364 36.7149847,53.4427675 36.7613756,53.4427675 C36.8098516,53.4427675 36.8359139,53.4014364 36.8567637,53.3381318 C36.9870754,52.9426086 37.1434493,52.4707013 37.5651377,51.6236748 C38.1103615,50.5276152 39.285251,48.5112841 41.7246844,47.2028139 C43.3655683,46.3249199 45.2978289,46.0361252 48.4263501,45.8524894 C51.9077552,45.6500192 51.8238346,45.6835026 54.0959479,45.6835026 C63.2104635,45.4313305 66.8383388,45.4370854 73.2058856,45.3805821 C73.3007524,45.3805821 73.3752907,45.2916417 73.2022368,45.2717609" id="Fill-1" fill="#957E3A" mask="url(#mask-2)"></path>
                        </g>
                        <path d="M97.7165099,65.9441252 L96.041745,65.9441252 L96.041745,57.3660854 L97.8994674,57.3660854 C100.206504,57.3660854 101.142663,59.5336152 101.142663,61.4960589 C101.142663,64.1407278 100.11685,65.9441252 97.7165099,65.9441252 M108.272793,77.9024232 C108.151864,77.8129596 108.086187,77.7627344 107.744771,77.4885887 C106.379626,76.3899132 105.234448,74.7706748 103.55447,71.8555225 L101.806731,68.8346881 C101.806731,68.8346881 101.110346,67.623006 101.026946,67.4807013 C103.938629,66.569847 105.129677,64.3301185 105.129677,61.736198 C105.129677,59.9720391 104.505745,58.3957013 103.524238,57.3514364 C102.15753,55.8896748 100.600045,55.7358603 98.9888725,55.7358603 L92.4977904,55.7358603 C92.2371671,55.7358603 92.0833994,55.8933371 92.0833994,56.1554497 L92.0833994,78.0431583 C92.0833994,78.3110258 92.2465496,78.4826285 92.4904929,78.4826285 L95.6278754,78.4826285 C95.8770312,78.4826285 96.041745,78.3162576 96.041745,78.0489132 L96.041745,68.0462576 C96.1308782,68.0389331 96.5416204,68.0368404 96.5416204,68.0368404 C96.9330765,68.0425954 97.1723286,68.0012642 97.4334731,68.4883437 C97.4569292,68.5312444 99.6597167,72.4268338 101.458017,75.5099265 C103.272997,78.6233636 106.348873,78.6432444 106.491694,78.6500457 C106.491694,78.6500457 106.807569,78.6699265 107.155762,78.6537079 C107.364261,78.6416748 107.790119,78.6359199 108.129972,78.5705225 C108.282697,78.5412245 108.379127,78.4716417 108.427603,78.3445093 C108.476601,78.2110987 108.466697,78.045251 108.272793,77.9024232" id="Fill-4" fill="#0E458F"></path>
                        <path d="M171.858971,61.8440252 C171.858971,63.8582636 172.70339,65.5245881 174.434971,66.9471113 L176.881181,68.9147868 L176.943209,68.968151 C178.48245,70.2295351 179.554654,71.1487603 179.554654,73.002906 C179.554654,74.9350053 177.969022,76.6123166 175.913747,76.6123166 C174.58926,76.6123166 173.035946,75.791449 172.06747,75.0009258 C171.800592,74.7838066 171.730744,74.8010715 171.633271,74.8010715 C171.424773,74.8010715 171.273611,75.010343 171.273611,75.3488397 L171.273611,76.5191907 C171.273611,77.1224159 171.373691,77.3243629 171.838121,77.5618861 C173.187107,78.2467272 174.384931,78.6882901 176.651832,78.6882901 C181.635991,78.6882901 183.812195,75.0255152 183.812195,72.2139523 C183.812195,69.9391709 182.814529,68.0243364 180.802518,66.4647404 L177.634903,64.0220185 C177.170994,63.6730583 175.76832,62.6471046 175.76832,60.8730053 C175.76832,58.5176543 177.75896,57.3865417 179.117849,57.3865417 C180.70296,57.3865417 181.675084,58.1577073 182.11658,58.4914954 C182.269827,58.6092106 182.324036,58.6620517 182.434541,58.6620517 C182.66024,58.6620517 182.797328,58.4485947 182.797328,58.1132371 L182.797328,57.1961046 C182.797328,56.6713563 182.702982,56.5107404 182.25888,56.2878662 C181.053759,55.7270185 179.597396,55.3989854 178.354744,55.3989854 C175.156376,55.3989854 171.858971,57.8097934 171.858971,61.8440252" id="Fill-6" fill="#0E458F"></path>
                        <path d="M32.72943,64.4034682 C32.3843649,64.7498126 32.0022912,65.1537066 30.783617,65.7893689 C30.52143,65.9117927 27.1192544,67.4766205 27.1192544,67.4766205 C24.5453394,68.7364351 24.5453394,70.1971503 24.4165915,71.3727331 C24.3529994,72.0240907 24.5041609,72.2035411 25.0128975,71.6929185 C25.3558776,71.351806 25.7400363,70.9479119 26.9587105,70.3112033 C27.0301212,70.2740576 27.2881382,70.1662828 27.6842856,69.9800311 C27.9193677,70.658594 28.0064159,71.3868589 28.0064159,72.0240907 C28.0064159,74.8241437 26.619379,76.8048987 24.3191184,76.8048987 C22.2502912,76.8048987 20.7350278,74.860243 20.7350278,72.0324616 C20.7350278,68.3811967 22.3425518,66.8964152 24.423889,66.8964152 L24.863821,66.8964152 C25.0931694,66.8964152 25.259447,66.7368457 25.259447,66.5035079 L25.259447,65.1615543 C25.259447,64.9271702 25.1265292,64.7560907 24.8773734,64.7560907 L24.5343932,64.7560907 C23.4319569,64.7560907 21.5872657,64.0168391 21.5872657,61.163945 C21.5872657,58.3686007 23.4799116,57.4258325 24.6308238,57.4258325 C26.4583139,57.4258325 27.4283535,58.4774219 27.6206935,58.6307132 C27.9318776,58.8828854 28.2957076,58.790806 28.2957076,58.3236073 L28.2977926,57.2327795 C28.2977926,56.7718589 27.8906992,56.5479384 27.6316397,56.4134815 C26.999889,56.0864947 25.6154584,55.5931371 24.1043649,55.5931371 C21.1426425,55.5931371 18.1548578,57.1501172 18.1548578,61.1466801 C18.1548578,63.3654815 19.3599796,65.0668589 20.6151411,65.5507993 C18.3993224,66.5558258 16.7177813,68.510945 16.7177813,71.6029318 C16.7177813,76.1770841 20.2799796,78.6695079 24.0579739,78.6695079 C29.2579286,78.6695079 31.7646028,75.3096536 31.7646028,71.7802894 C31.7646028,70.3535808 31.2949598,69.2407795 30.8435603,68.5125146 C33.1990731,67.2804285 33.2042856,65.8678457 33.3200023,64.7257464 C33.389328,64.078051 33.2381666,63.8954616 32.72943,64.4034682" id="Fill-8" fill="#0E458F"></path>
                        <path d="M46.5404283,54.1376013 C41.7830119,54.1376013 40.292247,60.8002834 40.292247,65.4968596 C40.292247,70.3467272 41.7939581,76.8414689 46.5315671,76.8414689 C51.2316465,76.8414689 52.7677598,70.4032305 52.7677598,65.4968596 C52.7677598,60.6218795 51.1769156,54.1376013 46.5404283,54.1376013 M46.5367796,78.9216278 C39.676655,78.9216278 36.0487796,73.3037338 36.0487796,65.5031377 C36.0487796,57.7407338 39.6750912,52.0658132 46.5315671,52.0658132 C53.3870006,52.0658132 57.0075785,57.7726477 57.0075785,65.530343 C57.0075785,73.3387868 53.322366,78.9216278 46.5367796,78.9216278" id="Fill-10" fill="#0E458F"></path>
                        <path d="M6.46986742,54.3205046 L4.36663796,54.3205046 L4.36663796,66.0826106 L6.35050198,66.0826106 C9.53792408,66.0826106 10.8248816,63.1800146 10.8248816,60.246551 C10.8248816,57.2895444 9.48267195,54.3205046 6.46986742,54.3205046 M7.35650765,68.0000609 L4.36663796,68.0256967 L4.36663796,78.0691603 C4.36663796,78.3699881 4.1617881,78.4782861 4.00072295,78.4782861 L0.416111048,78.4782861 C0.183113881,78.4782861 0.000156373938,78.3307497 0.000156373938,78.0607894 L0.000156373938,53.0313921 C0.000156373938,52.7572464 0.157051558,52.5976768 0.391612465,52.5976768 L7.35650765,52.5976768 C9.40604873,52.5976768 11.0823773,52.7865444 12.7310799,54.3403854 C14.2755331,55.816796 15.1168249,57.9471801 15.1168249,60.2392265 C15.1168249,65.3580079 11.4858221,68.0000609 7.35650765,68.0000609" id="Fill-12" fill="#0E458F"></path>
                        <path d="M123.162667,55.7362788 C122.914033,55.7362788 122.773296,55.9078815 122.773296,56.1181993 L122.773296,70.4627159 C122.784242,72.1384576 122.793104,74.038643 121.354985,75.5401662 C120.535064,76.3887623 119.45452,76.8282325 118.14567,76.8282325 C116.908752,76.8282325 115.76201,76.2987755 114.941047,75.3356033 C113.764073,73.9680139 113.79222,72.1928682 113.810463,70.6243781 L113.816718,69.9683119 L113.816718,56.1767954 C113.816718,55.9089278 113.650441,55.7362788 113.368968,55.7362788 L110.31707,55.7362788 C110.02882,55.7362788 109.867755,55.8932325 109.867755,56.184643 L109.867755,70.1697358 C109.867755,73.4207689 110.345738,74.9128748 111.917296,76.5697821 C113.282441,77.9938748 115.598339,78.9178086 117.829795,78.9178086 C118.967676,78.9178086 121.830883,78.6949344 123.748027,76.6529675 C124.97035,75.349206 125.903903,74.0611397 125.903903,70.401504 L125.903903,56.1747026 C125.903903,55.8461464 125.719381,55.7362788 125.503585,55.7362788 L123.162667,55.7362788 Z" id="Fill-14" fill="#0E458F"></path>
                        <path d="M131.478686,55.7362788 C131.286867,55.7362788 131.087229,55.8461464 131.087229,56.1181993 L131.087229,78.0990338 C131.087229,78.3313252 131.252986,78.4820007 131.466176,78.4820007 L134.671841,78.4820007 C134.873564,78.4820007 135.050266,78.3281861 135.050266,78.1121132 L135.050266,56.1045967 C135.050266,55.8503318 134.840204,55.7362788 134.689042,55.7362788 L131.478686,55.7362788 Z" id="Fill-16" fill="#0E458F"></path>
                        <path d="M156.519105,55.7362788 C156.202187,55.7362788 156.071354,55.8932325 156.071354,56.248994 L156.071354,77.9792258 C156.071354,78.3166762 156.224079,78.4820007 156.519105,78.4820007 L168.077224,78.4820007 C168.363909,78.4820007 168.529144,78.3219079 168.529144,78.0367755 L168.529144,77.1301066 C168.529144,76.9067093 168.483275,76.6147755 168.077224,76.6147755 L160.023445,76.6147755 L160.023445,67.6684179 L166.020385,67.6684179 C166.327921,67.6684179 166.474391,67.5193119 166.474391,67.2169146 L166.474391,66.3908152 C166.474391,66.0319146 166.340952,65.8801927 166.020385,65.8801927 L160.023445,65.8801927 L160.023445,57.4957291 L167.489258,57.4957291 C167.780635,57.4957291 167.944306,57.3366828 167.944306,57.0442258 L167.944306,56.248994 C167.944306,55.8932325 167.808782,55.7362788 167.489258,55.7362788 L156.519105,55.7362788 Z" id="Fill-18" fill="#0E458F"></path>
                        <path d="M139.926266,61.8440252 C139.926266,63.8582636 140.769122,65.5245881 142.500181,66.9471113 L144.948476,68.9147868 L145.010504,68.968151 C146.549745,70.2295351 147.621949,71.1487603 147.621949,73.002906 C147.621949,74.9350053 146.036317,76.6123166 143.979479,76.6123166 C142.652907,76.6123166 141.101156,75.791449 140.13268,75.0009258 C139.867887,74.7838066 139.79804,74.8010715 139.698482,74.8010715 C139.490504,74.8010715 139.340907,75.010343 139.340907,75.3488397 L139.340907,76.5191907 C139.340907,77.1224159 139.439422,77.3243629 139.905416,77.5618861 C141.252317,78.2467272 142.452227,78.6882901 144.719127,78.6882901 C149.703286,78.6882901 151.877926,75.0255152 151.877926,72.2139523 C151.877926,69.9391709 150.880261,68.0243364 148.867728,66.4647404 L145.69855,64.0220185 C145.238289,63.6730583 143.83353,62.6471046 143.83353,60.8730053 C143.83353,58.5176543 145.82417,57.3865417 147.183059,57.3865417 C148.768691,57.3865417 149.74238,58.1577073 150.183875,58.4914954 C150.335037,58.6092106 150.391331,58.6620517 150.499751,58.6620517 C150.72545,58.6620517 150.863059,58.4485947 150.863059,58.1132371 L150.863059,57.1961046 C150.863059,56.6713563 150.770278,56.5107404 150.324091,56.2878662 C149.118969,55.7270185 147.664691,55.3989854 146.42204,55.3989854 C143.223671,55.3989854 139.926266,57.8097934 139.926266,61.8440252" id="Fill-20" fill="#0E458F"></path>
                        <path d="M87.5539762,77.3464934 C85.9839819,78.3541358 82.8955966,78.6832152 81.399098,78.6832152 C74.2799139,78.6832152 69.627268,74.5977119 69.627268,65.8465 C69.627268,57.5588245 74.0604691,52.0659702 81.210928,52.0659702 C82.8940329,52.0659702 85.6482992,52.3772616 87.1573076,53.1547053 C87.699404,53.4267583 88.0992,53.656957 88.0992,54.4380629 L88.0992,55.4451821 C88.0992,55.719851 88.0017269,55.9903344 87.733285,55.9903344 C87.4236646,55.9903344 86.6913133,55.4859901 86.3832567,55.3290364 C85.0457382,54.6290232 83.6190867,54.1393278 82.2502935,54.1393278 C77.0831773,54.1393278 73.9911433,59.3904735 73.9911433,65.3798245 C73.9911433,71.563798 77.1577156,76.5591093 82.0355399,76.5591093 C84.4301462,76.5591093 86.1351433,75.5587914 87.1964011,74.9246987 C87.3418289,74.8341887 87.5602312,74.7253675 87.733285,74.7253675 C87.9944295,74.7253675 88.0992,74.9702152 88.0992,75.3521358 L88.0992,76.294904 C88.0992,76.7908775 87.9699309,77.0786258 87.5539762,77.3464934" id="Fill-22" fill="#0E458F"></path>
                    </g>
                </g>
            </g>
        </g>
    </g>
</svg>